<svg width="525" height="526" xmlns="http://www.w3.org/2000/svg" xmlns:xlink="http://www.w3.org/1999/xlink" overflow="hidden"><defs><clipPath id="clip0"><rect x="440" y="178" width="525" height="526"/></clipPath></defs><g clip-path="url(#clip0)" transform="translate(-440 -178)"><path d="M87.5 222.819 201.25 222.819C206.089 222.819 210 218.899 210 214.069 210 209.239 206.089 205.319 201.25 205.319L87.5 205.319C82.6612 205.319 78.75 209.239 78.75 214.069 78.75 218.899 82.6612 222.819 87.5 222.819Z" fill="#6747E4" transform="matrix(1 0 0 1.0019 440 178)"/><path d="M315 257.819 87.5 257.819C82.6612 257.819 78.75 261.739 78.75 266.569 78.75 271.399 82.6612 275.319 87.5 275.319L315 275.319C319.839 275.319 323.75 271.399 323.75 266.569 323.75 261.739 319.839 257.819 315 257.819Z" fill="#6747E4" transform="matrix(1 0 0 1.0019 440 178)"/><path d="M315 310.319 87.5 310.319C82.6612 310.319 78.75 314.239 78.75 319.069 78.75 323.899 82.6612 327.819 87.5 327.819L315 327.819C319.839 327.819 323.75 323.899 323.75 319.069 323.75 314.239 319.839 310.319 315 310.319Z" fill="#6747E4" transform="matrix(1 0 0 1.0019 440 178)"/><path d="M473.13 22.1813 174.387 21.5687C145.775 21.5687 122.5 44.8438 122.5 73.4563L122.5 118.291 51.8875 118.44C23.275 118.44 0 141.715 0 170.327L0 355.311C0 383.924 23.275 407.19 51.8875 407.19L105 407.19 105 494.69C105 498.304 107.222 501.55 110.6 502.854 111.624 503.247 112.691 503.44 113.75 503.44 116.165 503.44 118.536 502.434 120.225 500.579L205.135 407.173 350.612 406.577C379.225 406.577 402.5 383.302 402.5 354.699L402.5 353.71 448.525 404.337C450.214 406.193 452.585 407.199 455 407.199 456.059 407.199 457.126 407.006 458.15 406.613 461.527 405.309 463.75 402.062 463.75 398.449L463.75 310.949 473.112 310.949C501.725 310.949 525 287.674 525 259.07L525 74.0687C525 45.465 501.734 22.19 473.13 22.1813ZM385 354.69C385 373.651 369.574 389.069 350.578 389.069L201.215 389.681C198.765 389.69 196.42 390.731 194.775 392.542L122.5 472.054 122.5 398.431C122.5 393.601 118.589 389.681 113.75 389.681L51.8875 389.681C32.9263 389.681 17.5 374.255 17.5 355.302L17.5 170.319C17.5 151.357 32.9263 135.931 51.905 135.931L131.25 135.765C131.25 135.765 131.25 135.765 131.25 135.765 131.259 135.765 131.259 135.765 131.268 135.765L350.612 135.31C369.574 135.31 385 150.736 385 169.697L385 331.056 385 354.69ZM507.5 259.053C507.5 278.014 492.074 293.431 473.112 293.431L455 293.431C450.161 293.431 446.25 297.351 446.25 302.181L446.25 375.804 402.5 327.679 402.5 169.706C402.5 141.094 379.225 117.819 350.595 117.819L140 118.247 140 73.4475C140 54.4863 155.426 39.06 174.37 39.06L473.104 39.6725C473.112 39.6725 473.112 39.6725 473.121 39.6725 492.082 39.6725 507.509 55.0988 507.509 74.06L507.509 259.053Z" fill="#6747E4" transform="matrix(1 0 0 1.0019 440 178)"/></g></svg>