<svg width="520" height="521" xmlns="http://www.w3.org/2000/svg" xmlns:xlink="http://www.w3.org/1999/xlink" overflow="hidden"><defs><clipPath id="clip0"><rect x="447" y="152" width="520" height="521"/></clipPath></defs><g clip-path="url(#clip0)" transform="translate(-447 -152)"><path d="M86.6667 220.697 199.333 220.697C204.126 220.697 208 216.814 208 212.03 208 207.246 204.126 203.363 199.333 203.363L86.6667 203.363C81.874 203.363 78 207.246 78 212.03 78 216.814 81.874 220.697 86.6667 220.697Z" fill="#D3D3D3" transform="matrix(1 0 0 1.00192 447 152)"/><path d="M312 255.363 86.6667 255.363C81.874 255.363 78 259.246 78 264.03 78 268.814 81.874 272.697 86.6667 272.697L312 272.697C316.793 272.697 320.667 268.814 320.667 264.03 320.667 259.246 316.793 255.363 312 255.363Z" fill="#D3D3D3" transform="matrix(1 0 0 1.00192 447 152)"/><path d="M312 307.363 86.6667 307.363C81.874 307.363 78 311.246 78 316.03 78 320.814 81.874 324.697 86.6667 324.697L312 324.697C316.793 324.697 320.667 320.814 320.667 316.03 320.667 311.246 316.793 307.363 312 307.363Z" fill="#D3D3D3" transform="matrix(1 0 0 1.00192 447 152)"/><path d="M468.624 21.97 172.727 21.3633C144.387 21.3633 121.333 44.4167 121.333 72.7567L121.333 117.165 51.3933 117.312C23.0533 117.312 0 140.365 0 168.705L0 351.927C0 380.267 23.0533 403.312 51.3933 403.312L104 403.312 104 489.979C104 493.558 106.201 496.773 109.547 498.065 110.561 498.455 111.618 498.645 112.667 498.645 115.059 498.645 117.407 497.649 119.08 495.811L203.181 403.295 347.273 402.705C375.613 402.705 398.667 379.652 398.667 351.321L398.667 350.341 444.253 400.487C445.926 402.324 448.275 403.321 450.667 403.321 451.715 403.321 452.773 403.13 453.787 402.74 457.132 401.449 459.333 398.233 459.333 394.654L459.333 307.987 468.607 307.987C496.947 307.987 520 284.934 520 256.603L520 73.3633C520 45.032 496.955 21.9787 468.624 21.97ZM381.333 351.312C381.333 370.093 366.054 385.363 347.239 385.363L199.299 385.97C196.872 385.979 194.549 387.01 192.92 388.804L121.333 467.558 121.333 394.637C121.333 389.853 117.459 385.97 112.667 385.97L51.3933 385.97C32.6127 385.97 17.3333 370.691 17.3333 351.919L17.3333 168.697C17.3333 149.916 32.6127 134.637 51.4107 134.637L130 134.472C130 134.472 130 134.472 130 134.472 130.009 134.472 130.009 134.472 130.017 134.472L347.273 134.021C366.054 134.021 381.333 149.301 381.333 168.081L381.333 327.903 381.333 351.312ZM502.667 256.585C502.667 275.366 487.387 290.637 468.607 290.637L450.667 290.637C445.874 290.637 442 294.519 442 299.303L442 372.225 398.667 324.558 398.667 168.09C398.667 139.75 375.613 116.697 347.256 116.697L138.667 117.121 138.667 72.748C138.667 53.9673 153.946 38.688 172.709 38.688L468.598 39.2947C468.607 39.2947 468.607 39.2947 468.615 39.2947 487.396 39.2947 502.675 54.574 502.675 73.3547L502.675 256.585Z" fill="#D3D3D3" transform="matrix(1 0 0 1.00192 447 152)"/></g></svg>