<svg viewBox="0 0 96 96" xmlns="http://www.w3.org/2000/svg" xmlns:xlink="http://www.w3.org/1999/xlink" id="Icons_Checklist_LTR_M" overflow="hidden"><g id="Icons"><path d="M33 27.586 29.707 24.293 28.293 25.707 33 30.414 42.707 20.707 41.293 19.293 33 27.586Z" stroke="#6747E4" stroke-width="0.999986" fill="#6747E4"/><rect x="49" y="25" width="19" height="2" stroke="#6747E4" stroke-width="0.999986" fill="#6747E4"/><path d="M33 42.586 29.707 39.293 28.293 40.707 33 45.414 42.707 35.707 41.293 34.293 33 42.586Z" stroke="#6747E4" stroke-width="0.999986" fill="#6747E4"/><rect x="49" y="40" width="19" height="2" stroke="#6747E4" stroke-width="0.999986" fill="#6747E4"/><path d="M33 57.586 29.707 54.293 28.293 55.707 33 60.414 42.707 50.707 41.293 49.293 33 57.586Z" stroke="#6747E4" stroke-width="0.999986" fill="#6747E4"/><rect x="49" y="55" width="19" height="2" stroke="#6747E4" stroke-width="0.999986" fill="#6747E4"/><path d="M33 72.586 29.707 69.293 28.293 70.707 33 75.414 42.707 65.707 41.293 64.293 33 72.586Z" stroke="#6747E4" stroke-width="0.999986" fill="#6747E4"/><rect x="49" y="70" width="19" height="2" stroke="#6747E4" stroke-width="0.999986" fill="#6747E4"/><path d="M18 88 78 88 78 8 18 8ZM20 10 76 10 76 86 20 86Z" stroke="#6747E4" stroke-width="0.999986" fill="#6747E4"/></g></svg>