<?xml version="1.0" encoding="utf-8"?>
<!-- Generator: Adobe Illustrator 25.0.0, SVG Export Plug-In . SVG Version: 6.00 Build 0)  -->
<svg version="1.1" id="Calque_1" xmlns="http://www.w3.org/2000/svg" xmlns:xlink="http://www.w3.org/1999/xlink" x="0px" y="0px"
	 viewBox="0 0 595.3 841.9" style="enable-background:new 0 0 595.3 841.9;" xml:space="preserve">
<style type="text/css">
	.st0{fill-rule:evenodd;clip-rule:evenodd;fill:#6747E4;}
</style>
<g id="check" transform="translate(-9.182 -10.676)">
	<path id="Tracé_32" class="st0" d="M313.2,424.9c0.6-0.7,1.7-0.7,2.4-0.1c0.7,0.6,0.7,1.7,0.1,2.4c0,0,0,0-0.1,0.1l-9,11.2
		c-0.6,0.7-1.7,0.7-2.4,0.1c0,0,0,0,0,0l-6-6c-0.7-0.6-0.7-1.7-0.1-2.4c0.6-0.7,1.7-0.7,2.4-0.1c0,0,0.1,0.1,0.1,0.1l4.7,4.7
		L313.2,424.9C313.2,425,313.2,424.9,313.2,424.9L313.2,424.9z"/>
</g>
</svg>
