<svg xmlns="http://www.w3.org/2000/svg" xmlns:xlink="http://www.w3.org/1999/xlink" id="Icons_ArrowCircle_M" overflow="hidden" viewBox="13.24 17.66 65.79 63.86"><g id="Icons"><path d="M78.522 47.142C78.5287 43.3575 77.7906 39.6086 76.35 36.109 76.1396 35.5981 75.5549 35.3546 75.044 35.565 74.5331 35.7754 74.2896 36.3601 74.5 36.871 80.1636 50.6754 73.5642 66.4574 59.7598 72.121 58.2726 72.7312 56.7339 73.2074 55.162 73.544 55.149 73.544 55.144 73.544 55.15 73.529L59.138 66.479C59.4431 66.0187 59.3173 65.3981 58.857 65.093 58.3967 64.7878 57.7761 64.9137 57.471 65.374 57.4443 65.4142 57.4206 65.4563 57.4 65.5L52.331 74.463C52.0592 74.9438 52.2286 75.5539 52.7094 75.8257 52.7096 75.8258 52.7098 75.8259 52.71 75.826L61.656 80.885C62.1333 81.1629 62.7455 81.0013 63.0234 80.524 63.3013 80.0468 63.1397 79.4346 62.6624 79.1567 62.655 79.1524 62.6475 79.1481 62.64 79.144L56.058 75.422C56.046 75.415 56.048 75.407 56.058 75.404 69.1865 72.3209 78.4809 60.6276 78.522 47.142Z" stroke="#6747E4" fill="#846BE8"/><path d="M45.935 73.9C42.4428 73.4334 39.0768 72.2835 36.029 70.516 25.0385 64.1234 19.9685 50.9506 23.837 38.839 23.837 38.827 23.849 38.826 23.855 38.839L27.95 45.815C28.2303 46.2911 28.8434 46.4498 29.3195 46.1695 29.7956 45.8892 29.9543 45.2761 29.674 44.8L24.462 35.919C24.1824 35.4427 23.5697 35.2832 23.0934 35.5628 23.0933 35.5628 23.0931 35.5629 23.093 35.563L14.229 40.763C13.7527 41.0427 13.5933 41.6557 13.873 42.132 14.1527 42.6083 14.7657 42.7677 15.242 42.488L21.776 38.653C21.788 38.646 21.794 38.653 21.79 38.664 17.1182 53.997 25.7608 70.2142 41.0939 74.886 42.5895 75.3417 44.1195 75.6758 45.669 75.885 45.7137 75.891 45.7589 75.894 45.804 75.894 46.3563 75.8967 46.8062 75.4511 46.8088 74.8989 46.8113 74.3935 46.4363 73.9658 45.935 73.902Z" stroke="#6747E4" fill="#846BE8"/><path d="M69.527 29.014C69.536 29.023 69.533 29.031 69.52 29.031L61.479 29.071C60.9267 29.0724 60.4801 29.5212 60.4815 30.0735 60.4829 30.6258 60.9317 31.0724 61.484 31.071L61.484 31.071 71.784 31.02C72.3363 31.02 72.784 30.5723 72.784 30.02L72.73 19.738C72.7514 19.2071 72.3384 18.7594 71.8076 18.738 71.7817 18.737 71.7558 18.737 71.73 18.738 71.1777 18.738 70.73 19.1857 70.73 19.738 70.73 19.7397 70.73 19.7413 70.73 19.743L70.768 27.354C70.768 27.368 70.761 27.371 70.751 27.361 61.5213 17.5159 46.7366 15.3021 35.028 22.012 31.7469 23.8988 28.8695 26.4133 26.56 29.412 26.225 29.8511 26.3095 30.4786 26.7486 30.8136 27.1846 31.1461 27.807 31.0656 28.144 30.633 30.2943 27.8422 32.9733 25.5023 36.028 23.747 47.0485 17.4333 60.9757 19.6231 69.527 29.014Z" stroke="#6747E4" fill="#846BE8"/></g></svg>