<svg viewBox="0 0 512.001 512.001" xmlns="http://www.w3.org/2000/svg" xmlns:xlink="http://www.w3.org/1999/xlink" id="Layer_1" overflow="hidden"><g><g><path d="M196.371 242.536 117.69 253.009 117.69 258.153 117.924 258.153C182.91 258.154 132.092 258.07 200.14 258.07L196.371 242.536Z" stroke="#6747E4" stroke-width="1.00023" fill="#6747E4"/></g></g><g><g><circle cx="162.185" cy="34.967" r="34.967" stroke="#6747E4" stroke-width="1.00023" fill="#6747E4"/></g></g><g><g><path d="M244.139 196.35C241.948 187.316 233.859 181.116 224.79 181.116 222.93 181.116 225.942 180.786 180.126 186.886 177.802 205.677 160.3 219.386 141.198 216.631L90.04 209.283C88.855 212.317 88.395 215.683 88.855 219.141 90.308 230.057 100.337 237.729 111.24 236.266L209.627 223.169 218.092 258.071 221.5 258.071C227.254 248.797 234.921 240.827 244.104 234.649 246.738 232.877 249.466 231.286 252.265 229.862L244.139 196.35Z" stroke="#6747E4" stroke-width="1.00023" fill="#6747E4"/></g></g><g><g><path d="M375.564 240.004C375.24 240.003 287.704 240.004 287.38 240.004 265.498 240.002 245.816 251.787 235.561 270.336L373.819 283.446 208.767 283.446C199.596 283.446 192.16 290.881 192.16 300.053 192.16 309.225 199.596 316.66 208.767 316.66 391.87 316.66 385.656 316.54 385.656 316.54 397.03 316.685 406.741 307.402 406.802 295.632L406.924 271.908C407.014 254.522 392.973 240.093 375.564 240.004Z" stroke="#6747E4" stroke-width="1.00023" fill="#6747E4"/></g></g><g><g><path d="M184.102 276.4C181.271 276.4 42.893 276.4 35.555 276.4 24.549 276.4 15.625 285.323 15.625 296.33 15.625 307.336 24.548 316.26 35.555 316.26 40.432 316.26 172.861 316.26 178.114 316.26 175.799 312.289 174.295 307.761 173.865 302.879 172.956 292.548 177.035 282.935 184.102 276.4Z" stroke="#6747E4" stroke-width="1.00023" fill="#6747E4"/></g></g><g><g><path d="M509.281 351.49C509.281 341.96 501.554 334.234 492.025 334.234 480.061 334.234 33.267 334.234 19.975 334.234 10.446 334.234 2.719 341.959 2.719 351.49 2.719 359.582 8.297 366.353 15.812 368.218 15.811 368.302 15.805 368.383 15.805 368.467L15.805 480.023C15.805 497.655 30.151 512.001 47.783 512.001 57.312 512.001 65.039 504.276 65.039 494.745 65.039 486.075 58.646 478.9 50.317 477.675L50.317 371.001 461.682 371.001 461.682 477.676C453.353 478.901 446.96 486.077 446.96 494.746 446.96 504.276 454.687 512.002 464.216 512.002 481.849 512.002 496.194 497.656 496.194 480.024L496.194 368.467C496.194 368.383 496.188 368.302 496.187 368.218 503.702 366.353 509.281 359.582 509.281 351.49Z" stroke="#6747E4" stroke-width="1.00023" fill="#6747E4"/></g></g><g><g><path d="M277.598 142.407 219.309 85.84C216.161 82.785 211.947 81.076 207.561 81.076 184.178 81.076 138.975 81.076 116.811 81.076 111.187 81.076 105.932 83.879 102.8 88.55L70.189 137.174C70.187 137.176 53.547 161.988 53.547 161.988 49.906 167.418 49.732 174.544 53.148 180.155 55.69 184.331 60.064 187.351 65.161 188.083L143.68 199.36C152.924 200.688 161.462 194.24 162.777 185.059 164.101 175.836 157.699 167.286 148.476 165.961L96.515 158.498C107.243 142.502 106.873 143.054 117.691 126.924L117.691 143.914 150.955 148.691C163.35 150.47 173.291 158.645 177.82 169.59L207.051 165.054 207.051 120.959 245.288 158.067 240.764 167.243C250.719 171.942 258.355 180.943 261.095 192.238L262.732 198.987 280.98 161.974C284.217 155.409 282.85 147.505 277.598 142.407Z" stroke="#6747E4" stroke-width="1.00023" fill="#6747E4"/></g></g><g><g><path d="M496.822 289.908C496.347 286.937 493.78 284.664 490.675 284.664L479.568 284.664C488.049 278.302 493.565 268.191 493.635 256.771 493.755 237.373 478.127 221.551 458.729 221.431 458.654 221.431 458.581 221.43 458.507 221.43 439.212 221.431 423.509 237.013 423.389 256.336 423.317 267.912 428.856 278.212 437.455 284.664L429.515 284.664C426.073 284.664 423.283 287.454 423.283 290.896 423.283 294.779 423.283 305.175 423.283 308.932 423.285 312.375 426.076 315.166 429.518 315.166L490.676 315.166C494.118 315.166 496.908 312.376 496.908 308.934 496.908 289.819 496.963 290.785 496.822 289.908Z" stroke="#6747E4" stroke-width="1.00023" fill="#6747E4"/></g></g><g></g><g></g><g></g><g></g><g></g><g></g><g></g><g></g><g></g><g></g><g></g><g></g><g></g><g></g><g></g></svg>