<svg width="512" height="512" xmlns="http://www.w3.org/2000/svg" xmlns:xlink="http://www.w3.org/1999/xlink" overflow="hidden"><defs><clipPath id="clip0"><rect x="66" y="-8" width="512" height="512"/></clipPath></defs><g clip-path="url(#clip0)" transform="translate(-66 8)"><path d="M124.944 269.88 90 258.232 90 108 168.056 140.52ZM369.032 381.656 359.656 391.032C356.64 394.064 351.368 394.064 348.344 391.032L338.976 381.656C335.856 378.536 335.856 373.464 338.976 370.344L348.352 360.968C349.856 359.456 351.864 358.624 354.008 358.624 356.152 358.624 358.152 359.456 359.664 360.968L369.032 370.344C372.144 373.464 372.144 378.536 369.032 381.656ZM409.032 357.656 399.656 367.032C396.64 370.064 391.368 370.064 388.344 367.032L370.976 349.656C367.856 346.536 367.856 341.464 370.976 338.344L380.352 328.968C381.856 327.456 383.864 326.624 386.008 326.624 388.152 326.624 390.152 327.456 391.664 328.968L409.032 346.344C412.144 349.464 412.144 354.536 409.032 357.656ZM449.032 333.656 439.656 343.032C436.64 346.064 431.368 346.064 428.344 343.032L402.976 317.656C399.856 314.536 399.856 309.464 402.976 306.344L412.352 296.968C413.856 295.456 415.864 294.624 418.008 294.624 420.152 294.624 422.152 295.456 423.664 296.968L441.032 314.344C441.032 314.344 441.04 314.344 441.04 314.352L449.032 322.344C452.144 325.464 452.144 330.536 449.032 333.656ZM473.032 293.656 463.656 303.032C460.64 306.064 455.368 306.064 452.344 303.032L434.976 285.656C431.856 282.536 431.856 277.464 434.976 274.344L444.352 264.968C445.912 263.408 447.96 262.632 450.008 262.632 452.056 262.632 454.104 263.408 455.664 264.968L473.032 282.344C476.144 285.464 476.144 290.536 473.032 293.656ZM474.752 261.44 466.968 253.656C457.608 244.296 442.392 244.296 433.032 253.656L423.656 263.032C419.24 267.448 416.992 273.176 416.744 278.976 410.952 279.264 405.256 281.432 401.032 285.656L391.656 295.032C387.24 299.448 384.992 305.176 384.744 310.976 378.952 311.264 373.256 313.432 369.032 317.656L359.656 327.032C355.24 331.448 352.992 337.176 352.744 342.976 346.952 343.264 341.256 345.432 337.032 349.656L327.656 359.032C319.048 367.648 318.472 381.176 325.712 390.584L315.864 397.152 298.808 374.416 310.44 366.664 301.568 353.352 260.552 380.696 247.528 358.992 286.248 334.792 277.768 321.232 220.352 357.112 200.36 327.128 254.12 294.872 245.888 281.152 172.072 325.44 157.68 306.24 294.176 222.824 285.832 209.168 162 284.848 162 264C162 260.968 160.288 258.2 157.576 256.84L147.784 251.944 180.384 154.136 206.416 167.152C208.08 167.984 209.968 168.2 211.792 167.792L312.424 144.568 379.576 189.336 399.408 235.616 394.36 237.632C382.848 242.224 369.504 237.152 363.976 226.08L353.144 204.416C352.04 202.208 349.976 200.632 347.56 200.152L307.56 192.152 304.416 207.84 340.584 215.072 349.664 233.24C356.592 247.088 370.84 255.312 385.632 255.312 390.544 255.312 395.52 254.4 400.304 252.488L412.968 247.424C414.968 246.624 416.56 245.048 417.384 243.064 418.208 241.072 418.2 238.832 417.344 236.848L393.344 180.848C393.072 180.208 392.688 179.616 392.256 179.072L466.224 162 494.44 246.656ZM554 258.232 519.056 269.88 475.936 140.52 554 108Z" fill="#44DFA4"/></g></svg>