<svg width="232" height="241" xmlns="http://www.w3.org/2000/svg" xmlns:xlink="http://www.w3.org/1999/xlink" overflow="hidden"><defs><clipPath id="clip0"><rect x="163" y="321" width="232" height="241"/></clipPath><clipPath id="clip1"><rect x="163" y="322" width="231" height="239"/></clipPath><clipPath id="clip2"><rect x="163" y="322" width="231" height="239"/></clipPath><clipPath id="clip3"><rect x="163" y="322" width="231" height="239"/></clipPath></defs><g clip-path="url(#clip0)" transform="translate(-163 -321)"><g clip-path="url(#clip1)"><g clip-path="url(#clip2)"><g clip-path="url(#clip3)"><path d="M26.5939 125.372 10.8281 120.116 10.8281 52.3359 46.0448 67.008ZM136.72 175.802 132.489 180.032C131.129 181.4 128.75 181.4 127.386 180.032L123.159 175.802C121.751 174.394 121.751 172.106 123.159 170.698L127.389 166.468C128.068 165.786 128.974 165.41 129.941 165.41 130.908 165.41 131.811 165.786 132.493 166.468L136.72 170.698C138.124 172.106 138.124 174.394 136.72 175.802ZM154.766 164.974 150.536 169.204C149.175 170.572 146.797 170.572 145.433 169.204L137.597 161.364C136.189 159.957 136.189 157.668 137.597 156.261L141.827 152.03C142.505 151.348 143.411 150.973 144.379 150.973 145.346 150.973 146.248 151.348 146.93 152.03L154.766 159.87C156.17 161.278 156.17 163.566 154.766 164.974ZM172.813 154.146 168.583 158.376C167.222 159.744 164.844 159.744 163.479 158.376L152.034 146.927C150.626 145.519 150.626 143.231 152.034 141.823L156.264 137.593C156.943 136.911 157.849 136.535 158.816 136.535 159.783 136.535 160.686 136.911 161.368 137.593L169.204 145.433C169.204 145.433 169.208 145.433 169.208 145.436L172.813 149.042C174.217 150.45 174.217 152.738 172.813 154.146ZM183.641 136.099 179.411 140.329C178.05 141.697 175.672 141.697 174.308 140.329L166.472 132.489C165.064 131.082 165.064 128.793 166.472 127.386L170.702 123.155C171.406 122.452 172.33 122.102 173.254 122.102 174.178 122.102 175.102 122.452 175.805 123.155L183.641 130.995C185.045 132.403 185.045 134.691 183.641 136.099ZM184.417 121.564 180.905 118.052C176.683 113.829 169.817 113.829 165.595 118.052L161.364 122.282C159.372 124.274 158.358 126.859 158.246 129.476 155.633 129.605 153.063 130.584 151.157 132.489L146.927 136.72C144.934 138.712 143.92 141.296 143.808 143.913 141.195 144.043 138.625 145.021 136.72 146.927L132.489 151.157C130.497 153.149 129.483 155.734 129.371 158.351 126.758 158.48 124.188 159.459 122.282 161.364L118.052 165.595C114.168 169.482 113.908 175.585 117.175 179.83L112.732 182.793 105.036 172.535 110.284 169.038 106.282 163.032 87.7764 175.369 81.9003 165.576 99.3697 154.658 95.5438 148.54 69.6393 164.728 60.6195 151.2 84.8745 136.647 81.1604 130.457 47.8567 150.439 41.3634 141.776 102.947 104.141 99.182 97.9801 43.3125 132.125 43.3125 122.719C43.3125 121.351 42.5401 120.102 41.3165 119.488L36.8986 117.279 51.6068 73.1512 63.3517 79.0237C64.1025 79.399 64.9543 79.4965 65.7773 79.3124L111.18 68.8344 141.477 89.0325 150.424 109.913 148.147 110.822C142.953 112.894 136.932 110.606 134.438 105.61L129.551 95.8361C129.053 94.8399 128.122 94.1289 127.032 93.9123L108.985 90.3029 107.567 97.3809 123.885 100.644 127.981 108.841C131.107 115.089 137.535 118.799 144.209 118.799 146.425 118.799 148.67 118.387 150.829 117.525L156.542 115.24C157.445 114.879 158.163 114.168 158.535 113.273 158.906 112.374 158.903 111.364 158.517 110.469L147.688 85.2029C147.566 84.9142 147.392 84.6471 147.198 84.4016L180.57 76.6992 193.3 114.894ZM220.172 120.116 204.406 125.372 184.952 67.008 220.172 52.3359Z" fill="#D3D3D3" transform="matrix(1 0 0 1.03463 163 322)"/></g></g></g><path d="M189 340 364.561 525.591" stroke="#D3D3D3" stroke-width="6" stroke-miterlimit="8" fill="none" fill-rule="evenodd"/></g></svg>