<svg width="512" height="512" viewBox="0 0 64 64" xmlns="http://www.w3.org/2000/svg" xmlns:xlink="http://www.w3.org/1999/xlink" id="Layer_3" overflow="hidden"><g><path d="M7.368 34.735 3 33.279 3 14.5 12.757 18.565ZM37.879 48.707 36.707 49.879C36.33 50.258 35.671 50.258 35.293 49.879L34.122 48.707C33.732 48.317 33.732 47.683 34.122 47.293L35.294 46.121C35.482 45.932 35.733 45.828 36.001 45.828 36.269 45.828 36.519 45.932 36.708 46.121L37.879 47.293C38.268 47.683 38.268 48.317 37.879 48.707ZM42.879 45.707 41.707 46.879C41.33 47.258 40.671 47.258 40.293 46.879L38.122 44.707C37.732 44.317 37.732 43.683 38.122 43.293L39.294 42.121C39.482 41.932 39.733 41.828 40.001 41.828 40.269 41.828 40.519 41.932 40.708 42.121L42.879 44.293C43.268 44.683 43.268 45.317 42.879 45.707ZM47.879 42.707 46.707 43.879C46.33 44.258 45.671 44.258 45.293 43.879L42.122 40.707C41.732 40.317 41.732 39.683 42.122 39.293L43.294 38.121C43.482 37.932 43.733 37.828 44.001 37.828 44.269 37.828 44.519 37.932 44.708 38.121L46.879 40.293C46.879 40.293 46.88 40.293 46.88 40.294L47.879 41.293C48.268 41.683 48.268 42.317 47.879 42.707ZM50.879 37.707 49.707 38.879C49.33 39.258 48.671 39.258 48.293 38.879L46.122 36.707C45.732 36.317 45.732 35.683 46.122 35.293L47.294 34.121C47.489 33.926 47.745 33.829 48.001 33.829 48.257 33.829 48.513 33.926 48.708 34.121L50.879 36.293C51.268 36.683 51.268 37.317 50.879 37.707ZM51.094 33.68 50.121 32.707C48.951 31.537 47.049 31.537 45.879 32.707L44.707 33.879C44.155 34.431 43.874 35.147 43.843 35.872 43.119 35.908 42.407 36.179 41.879 36.707L40.707 37.879C40.155 38.431 39.874 39.147 39.843 39.872 39.119 39.908 38.407 40.179 37.879 40.707L36.707 41.879C36.155 42.431 35.874 43.147 35.843 43.872 35.119 43.908 34.407 44.179 33.879 44.707L32.707 45.879C31.631 46.956 31.559 48.647 32.464 49.823L31.233 50.644 29.101 47.802 30.555 46.833 29.446 45.169 24.319 48.587 22.691 45.874 27.531 42.849 26.471 41.154 19.294 45.639 16.795 41.891 23.515 37.859 22.486 36.144 13.259 41.68 11.46 39.28 28.522 28.853 27.479 27.146 12 36.606 12 34C12 33.621 11.786 33.275 11.447 33.105L10.223 32.493 14.298 20.267 17.552 21.894C17.76 21.998 17.996 22.025 18.224 21.974L30.803 19.071 39.197 24.667 41.676 30.452 41.045 30.704C39.606 31.278 37.938 30.644 37.247 29.26L35.893 26.552C35.755 26.276 35.497 26.079 35.195 26.019L30.195 25.019 29.802 26.98 34.323 27.884 35.458 30.155C36.324 31.886 38.105 32.914 39.954 32.914 40.568 32.914 41.19 32.8 41.788 32.561L43.371 31.928C43.621 31.828 43.82 31.631 43.923 31.383 44.026 31.134 44.025 30.854 43.918 30.606L40.918 23.606C40.884 23.526 40.836 23.452 40.782 23.384L50.028 21.25 53.555 31.832ZM61 33.279 56.632 34.735 51.242 18.565 61 14.5Z" fill="#D3D3D3"/></g></svg>