<svg width="417.333" height="420" viewBox="0 0 313 315" xmlns="http://www.w3.org/2000/svg" xmlns:xlink="http://www.w3.org/1999/xlink" overflow="hidden"><g transform="matrix(0.1 0 0 -0.1 0 315)"><path d="M779 2740 3 2352 68 2222 133 2092 849 2450 1565 2808 2281 2449 2997 2091 3059 2218C3118 2337 3120 2345 3103 2358 3078 2376 1573 3130 1563 3129 1559 3129 1206 2954 779 2740Z" fill="#5094B8"/><path d="M148 1761 115 1732 112 866 110 0 225 0 340 0 340 230 340 460 1565 460 2790 460 2790 230 2790 0 2905 0 3020 0 3020 340 3020 680 1680 680 340 680 340 1190C340 1751 341 1744 280 1775 233 1799 185 1794 148 1761Z" fill="#5094B8"/><path d="M609 1597C545 1563 507 1504 502 1431 492 1294 575 1200 705 1200 777 1200 816 1217 862 1268 959 1376 929 1533 798 1601 745 1628 665 1626 609 1597Z" fill="#5094B8"/><path d="M1097 1489C1057 1466 1050 1429 1050 1250L1050 1080 833 1080C711 1080 598 1075 577 1069 536 1058 500 1013 500 972 500 937 525 895 555 882 575 873 876 870 1800 870L3020 870 3020 1036C3020 1210 3017 1224 2971 1273 2933 1314 2897 1326 2774 1339 2714 1345 2623 1355 2573 1360 2391 1379 2294 1389 2233 1395 2154 1402 1904 1427 1778 1440 1724 1446 1636 1454 1583 1460 1529 1465 1463 1472 1435 1475 1164 1504 1125 1505 1097 1489Z" fill="#5094B8"/></g></svg>