<svg width="417" height="420" xmlns="http://www.w3.org/2000/svg" xmlns:xlink="http://www.w3.org/1999/xlink" overflow="hidden"><defs><clipPath id="clip0"><rect x="-179" y="324" width="417" height="420"/></clipPath></defs><g clip-path="url(#clip0)" transform="translate(179 -324)"><path d="M103.784 365.042 0.399681 313.35 9.05943 296.03 17.7192 278.711 113.11 326.406 208.5 374.101 303.89 326.273 399.281 278.577 407.541 295.497C415.401 311.351 415.668 312.417 413.403 314.149 410.072 316.547 209.566 417 208.234 416.867 207.701 416.867 160.672 393.552 103.784 365.042Z" fill="#44DFA4" transform="matrix(1 0 0 -1 -179 743.832)"/><path d="M19.7176 234.612 15.3211 230.749 14.9214 115.374 14.655 0 29.976 0 45.2971 0 45.2971 30.6422 45.2971 61.2843 208.5 61.2843 371.703 61.2843 371.703 30.6422 371.703 0 387.024 0 402.345 0 402.345 45.2971 402.345 90.5943 223.821 90.5943 45.2971 90.5943 45.2971 158.54C45.2971 233.28 45.4304 232.348 37.3035 236.478 31.0419 239.675 24.647 239.009 19.7176 234.612Z" fill="#44DFA4" transform="matrix(1 0 0 -1 -179 743.832)"/><path d="M81.1351 212.763C72.6086 208.234 67.546 200.373 66.8799 190.648 65.5476 172.396 76.6054 159.872 93.9249 159.872 103.517 159.872 108.713 162.137 114.842 168.932 127.765 183.32 123.768 204.237 106.315 213.296 99.254 216.893 88.5958 216.627 81.1351 212.763Z" fill="#44DFA4" transform="matrix(1 0 0 -1 -179 743.832)"/><path d="M146.15 198.375C140.821 195.311 139.888 190.381 139.888 166.534L139.888 143.885 110.978 143.885C94.7243 143.885 79.6697 143.219 76.8719 142.419 71.4096 140.954 66.6134 134.959 66.6134 129.496 66.6134 124.834 69.9441 119.238 73.9409 117.506 76.6054 116.307 116.707 115.907 239.808 115.907L402.345 115.907 402.345 138.023C402.345 161.204 401.945 163.07 395.817 169.598 390.754 175.06 385.958 176.659 369.571 178.391 361.578 179.19 349.454 180.522 342.793 181.189 318.545 183.72 305.622 185.052 297.496 185.851 286.971 186.784 253.664 190.115 236.877 191.847 229.683 192.646 217.959 193.712 210.898 194.511 203.704 195.177 194.911 196.11 191.181 196.51 155.076 200.373 149.88 200.506 146.15 198.375Z" fill="#44DFA4" transform="matrix(1 0 0 -1 -179 743.832)"/></g></svg>