<svg width="290" height="276" xmlns="http://www.w3.org/2000/svg" xmlns:xlink="http://www.w3.org/1999/xlink" overflow="hidden"><defs><clipPath id="clip0"><rect x="582" y="31" width="290" height="276"/></clipPath><clipPath id="clip1"><rect x="583" y="32" width="289" height="272"/></clipPath><clipPath id="clip2"><rect x="583" y="32" width="289" height="272"/></clipPath><clipPath id="clip3"><rect x="583" y="32" width="289" height="272"/></clipPath></defs><g clip-path="url(#clip0)" transform="translate(-582 -31)"><g clip-path="url(#clip1)"><g clip-path="url(#clip2)"><g clip-path="url(#clip3)"><path d="M67.2123 236.408 0.258841 202.931 5.86706 191.715 11.4753 180.498 73.2519 211.387 135.029 242.275 196.805 211.3 258.582 180.412 263.931 191.37C269.022 201.637 269.194 202.327 267.728 203.449 265.571 205.002 135.719 270.057 134.856 269.971 134.511 269.971 104.054 254.872 67.2123 236.408Z" fill="#D3D3D3" transform="matrix(1.07014 0 0 -1 583 303.891)"/><path d="M12.7695 151.939 9.92223 149.437 9.66339 74.7187 9.49083 0 19.4131 0 29.3353 0 29.3353 19.8445 29.3353 39.6889 135.029 39.6889 240.722 39.6889 240.722 19.8445 240.722 0 250.644 0 260.566 0 260.566 29.3353 260.566 58.6706 144.951 58.6706 29.3353 58.6706 29.3353 102.673C29.3353 151.077 29.4216 150.473 24.1585 153.147 20.1033 155.218 15.9618 154.787 12.7695 151.939Z" fill="#D3D3D3" transform="matrix(1.07014 0 0 -1 583 303.891)"/><path d="M52.5447 137.79C47.0227 134.856 43.7441 129.765 43.3127 123.467 42.4499 111.647 49.6111 103.536 60.8276 103.536 67.0397 103.536 70.4047 105.003 74.3736 109.403 82.7427 118.722 80.1543 132.268 68.8516 138.135 64.2788 140.464 57.3764 140.292 52.5447 137.79Z" fill="#D3D3D3" transform="matrix(1.07014 0 0 -1 583 303.891)"/><path d="M94.6494 128.471C91.1982 126.487 90.5942 123.294 90.5942 107.85L90.5942 93.1827 71.8714 93.1827C61.3452 93.1827 51.5956 92.7513 49.7837 92.2336 46.2462 91.2845 43.1401 87.4019 43.1401 83.8644 43.1401 80.8446 45.2971 77.2208 47.8855 76.0992 49.6111 75.3226 75.5815 75.0638 155.304 75.0638L260.566 75.0638 260.566 89.3863C260.566 104.399 260.307 105.607 256.339 109.835 253.06 113.372 249.954 114.408 239.341 115.529 234.165 116.047 226.313 116.91 221.999 117.341 206.296 118.98 197.927 119.843 192.664 120.361 185.848 120.965 164.278 123.122 153.406 124.244 148.747 124.761 141.154 125.451 136.582 125.969 131.922 126.401 126.228 127.005 123.812 127.263 100.43 129.765 97.0653 129.852 94.6494 128.471Z" fill="#D3D3D3" transform="matrix(1.07014 0 0 -1 583 303.891)"/></g></g></g><path d="M593 49 854.976 302.342" stroke="#D3D3D3" stroke-width="6" stroke-miterlimit="8" fill="none" fill-rule="evenodd"/></g></svg>