<svg xmlns="http://www.w3.org/2000/svg" xmlns:xlink="http://www.w3.org/1999/xlink" overflow="hidden" viewBox="42.15 170.2 427.52 341.8"><g transform="matrix(0.1 0 0 -0.1 0 512)"><path d="M2185 3409C1907 3396 1699 3364 1560 3314 1364 3244 1241 3160 1187 3062 1154 3001 1067 2773 939 2408L845 2140 745 2140C571 2140 516 2098 455 1923 415 1811 414 1800 436 1755 456 1711 491 1700 601 1700 650 1700 690 1699 690 1698 690 1696 680 1670 667 1640L645 1585 642 845C638 22 635 63 705 20 736 1 756 0 1066 0 1378 0 1397 1 1428 20 1486 56 1500 103 1500 273L1500 420 2560 420 3620 420 3620 273C3620 103 3634 56 3692 20 3723 1 3742 0 4054 0 4364 0 4384 1 4415 20 4485 63 4482 22 4478 845L4475 1585 4453 1638C4440 1667 4430 1693 4430 1695 4430 1698 4470 1700 4519 1700 4631 1700 4664 1711 4685 1757 4705 1799 4701 1829 4658 1947 4622 2048 4592 2085 4525 2116 4483 2136 4459 2140 4374 2140L4273 2140 4175 2413C4005 2884 3931 3072 3894 3119 3791 3253 3562 3344 3226 3385 2970 3417 2543 3427 2185 3409ZM2978 3080C3342 3054 3581 2999 3648 2927 3659 2915 3699 2820 3738 2715 3824 2482 3838 2436 3893 2238L3937 2081 3886 2066C3749 2027 3502 1985 3270 1961 2845 1916 2248 1918 1805 1966 1578 1990 1233 2053 1193 2078 1155 2102 1412 2871 1478 2932 1556 3006 1729 3048 2055 3075 2244 3091 2785 3093 2978 3080ZM1161 1494C1315 1446 1593 1322 1657 1274 1728 1221 1720 1117 1643 1082 1610 1067 1569 1065 1345 1065 1075 1065 1017 1072 938 1111 869 1146 860 1167 860 1302 860 1439 872 1479 923 1504 972 1528 1066 1524 1161 1494ZM4222 1482 4255 1450 4258 1317C4261 1194 4260 1183 4240 1157 4228 1142 4202 1121 4182 1111 4103 1072 4045 1065 3775 1065 3551 1065 3510 1067 3477 1082 3400 1117 3392 1221 3463 1274 3525 1321 3783 1436 3950 1492 4019 1515 4049 1520 4112 1518 4185 1515 4192 1513 4222 1482Z" fill="#5094B8"/></g></svg>