<svg width="577" height="468" xmlns="http://www.w3.org/2000/svg" xmlns:xlink="http://www.w3.org/1999/xlink" overflow="hidden"><defs><clipPath id="clip0"><rect x="-129" y="144" width="577" height="468"/></clipPath></defs><g clip-path="url(#clip0)" transform="translate(129 -144)"><path d="M291.345 454.551C254.277 452.818 226.542 448.551 208.008 441.884 181.874 432.55 165.473 421.35 158.273 408.283 153.873 400.149 142.272 369.748 125.205 321.079L112.671 285.345 99.3372 285.345C76.1363 285.345 68.8027 279.744 60.669 256.41 55.3355 241.476 55.2022 240.009 58.1356 234.009 60.8024 228.142 65.4692 226.676 80.1365 226.676 86.6701 226.676 92.0036 226.542 92.0036 226.409 92.0036 226.142 90.6702 222.675 88.9368 218.675L86.0034 211.342 85.6034 112.671C85.07 2.93345 84.67 8.40033 94.0037 2.66677 98.1372 0.133339 100.804 0 142.139 0 183.741 0 186.274 0.133339 190.407 2.66677 198.141 7.46696 200.008 13.7339 200.008 36.4014L200.008 56.0022 341.347 56.0022 482.686 56.0022 482.686 36.4014C482.686 13.7339 484.552 7.46696 492.286 2.66677 496.419 0.133339 498.953 0 540.555 0 581.889 0 584.556 0.133339 588.69 2.66677 598.023 8.40033 597.623 2.93345 597.09 112.671L596.69 211.342 593.757 218.409C592.023 222.275 590.69 225.742 590.69 226.009 590.69 226.409 596.023 226.676 602.557 226.676 617.491 226.676 621.891 228.142 624.691 234.276 627.358 239.876 626.825 243.876 621.091 259.61 616.291 273.077 612.291 278.011 603.357 282.144 597.757 284.811 594.557 285.345 583.223 285.345L569.756 285.345 556.688 321.746C534.021 384.548 524.154 409.616 519.22 415.883 505.486 433.75 474.952 445.884 430.15 451.351 396.016 455.618 339.08 456.951 291.345 454.551ZM397.082 410.683C445.617 407.216 477.485 399.882 486.419 390.282 487.886 388.682 493.219 376.015 498.42 362.014 509.887 330.946 511.753 324.813 519.087 298.412L524.954 277.478 518.154 275.477C499.886 270.277 466.952 264.677 436.017 261.477 379.348 255.477 299.745 255.743 240.676 262.144 210.408 265.344 164.406 273.744 159.073 277.078 154.006 280.278 188.274 382.815 197.074 390.949 207.475 400.816 230.542 406.416 274.011 410.016 299.212 412.149 371.348 412.416 397.082 410.683ZM154.806 199.208C175.34 192.808 212.408 176.274 220.942 169.873 230.409 162.806 229.342 148.939 219.075 144.272 214.675 142.272 209.208 142.006 179.34 142.006 143.339 142.006 135.605 142.939 125.072 148.139 115.871 152.806 114.671 155.606 114.671 173.607 114.671 191.874 116.271 197.208 123.071 200.541 129.605 203.741 142.139 203.208 154.806 199.208ZM562.955 197.608 567.356 193.341 567.756 175.607C568.156 159.206 568.022 157.74 565.355 154.273 563.755 152.273 560.289 149.473 557.622 148.139 547.088 142.939 539.354 142.006 503.353 142.006 473.485 142.006 468.018 142.272 463.618 144.272 453.351 148.939 452.284 162.806 461.751 169.873 470.018 176.14 504.42 191.474 526.687 198.941 535.888 202.008 539.888 202.675 548.288 202.408 558.022 202.008 558.955 201.741 562.955 197.608Z" fill="#44DFA4" transform="matrix(1.00045 0 0 -1 -181.502 612)"/></g></svg>