<svg xmlns="http://www.w3.org/2000/svg" xmlns:xlink="http://www.w3.org/1999/xlink" overflow="hidden" viewBox="18 45 307 319.13"><defs><clipPath id="clip0"><rect x="756" y="-1" width="304" height="341"/></clipPath><clipPath id="clip1"><rect x="757" y="0" width="302" height="303"/></clipPath><clipPath id="clip2"><rect x="757" y="0" width="302" height="303"/></clipPath><clipPath id="clip3"><rect x="757" y="0" width="302" height="303"/></clipPath></defs><g clip-path="url(#clip0)" transform="translate(-756 1)"><g clip-path="url(#clip1)"><g clip-path="url(#clip2)"><g clip-path="url(#clip3)"><path d="M128.881 201.078C112.483 200.311 100.214 198.423 92.0156 195.474 80.4547 191.345 73.1996 186.391 70.0145 180.61 68.068 177.012 62.9363 163.564 55.3863 142.034L49.8418 126.227 43.9434 126.227C33.6801 126.227 30.4359 123.749 26.8379 113.427 24.4785 106.821 24.4195 106.172 25.7172 103.518 26.8969 100.922 28.9613 100.273 35.4496 100.273 38.3398 100.273 40.6992 100.214 40.6992 100.155 40.6992 100.038 40.1094 98.5039 39.3426 96.7344L38.0449 93.4902 37.868 49.8418C37.632 1.29766 37.4551 3.71602 41.584 1.17969 43.4125 0.0589844 44.5922 0 62.8773 0 81.2805 0 82.4012 0.0589844 84.2297 1.17969 87.6508 3.30313 88.4766 6.07539 88.4766 16.1027L88.4766 24.7734 151 24.7734 213.523 24.7734 213.523 16.1027C213.523 6.07539 214.349 3.30313 217.77 1.17969 219.599 0.0589844 220.72 0 239.123 0 257.408 0 258.587 0.0589844 260.416 1.17969 264.545 3.71602 264.368 1.29766 264.132 49.8418L263.955 93.4902 262.657 96.6164C261.891 98.327 261.301 99.8605 261.301 99.9785 261.301 100.155 263.66 100.273 266.55 100.273 273.157 100.273 275.103 100.922 276.342 103.636 277.521 106.113 277.286 107.882 274.749 114.843 272.626 120.8 270.856 122.982 266.904 124.811 264.427 125.991 263.011 126.227 257.998 126.227L252.04 126.227 246.26 142.329C236.232 170.111 231.868 181.2 229.685 183.972 223.61 191.876 210.102 197.244 190.284 199.662 175.184 201.55 149.997 202.139 128.881 201.078ZM175.655 181.672C197.126 180.138 211.223 176.894 215.175 172.647 215.824 171.939 218.183 166.336 220.484 160.143 225.556 146.399 226.382 143.686 229.626 132.007L232.221 122.746 229.213 121.862C221.132 119.561 206.563 117.084 192.879 115.668 167.811 113.014 132.597 113.132 106.467 115.963 93.0773 117.379 72.7277 121.095 70.3684 122.57 68.127 123.985 83.2859 169.344 87.1789 172.942 91.7797 177.307 101.984 179.784 121.213 181.377 132.361 182.321 164.271 182.439 175.655 181.672ZM68.4809 88.1227C77.5645 85.2914 93.9621 77.9773 97.7371 75.1461 101.925 72.0199 101.453 65.8856 96.9113 63.8211 94.9648 62.9363 92.5465 62.8184 79.334 62.8184 63.4082 62.8184 59.9871 63.2313 55.3273 65.5316 51.2574 67.5961 50.7266 68.8348 50.7266 76.7977 50.7266 84.8785 51.4344 87.2379 54.4426 88.7125 57.3328 90.1281 62.8773 89.8922 68.4809 88.1227ZM249.032 87.4148 250.979 85.5273 251.155 77.6824C251.332 70.4273 251.273 69.7785 250.094 68.2449 249.386 67.3602 247.852 66.1215 246.673 65.5316 242.013 63.2313 238.592 62.8184 222.666 62.8184 209.454 62.8184 207.035 62.9363 205.089 63.8211 200.547 65.8856 200.075 72.0199 204.263 75.1461 207.92 77.9184 223.138 84.7016 232.988 88.0047 237.058 89.3613 238.828 89.6563 242.544 89.5383 246.85 89.3613 247.263 89.2434 249.032 87.4148Z" fill="#D3D3D3" transform="matrix(1 0 0 -1.00331 757 303)"/></g></g></g><path d="M801 71 1053.97 336.13" stroke="#D3D3D3" stroke-width="6" stroke-miterlimit="8" fill="none" fill-rule="evenodd"/></g></svg>