<svg width="329" height="354" xmlns="http://www.w3.org/2000/svg" xmlns:xlink="http://www.w3.org/1999/xlink" overflow="hidden"><defs><clipPath id="clip0"><rect x="456" y="244" width="329" height="354"/></clipPath><clipPath id="clip1"><rect x="457" y="245" width="327" height="352"/></clipPath><clipPath id="clip2"><rect x="457" y="245" width="327" height="352"/></clipPath><clipPath id="clip3"><rect x="457" y="245" width="327" height="352"/></clipPath></defs><g clip-path="url(#clip0)" transform="translate(-456 -244)"><g clip-path="url(#clip1)"><g clip-path="url(#clip2)"><g clip-path="url(#clip3)"><path d="M111.098 310.65 215.902 310.65C234.099 310.65 248.863 296.658 248.863 279.359L248.863 47.6635C248.863 30.3816 234.106 16.35 215.934 16.35L111.131 16.35C92.9367 16.35 78.1693 30.3816 78.1693 47.6635L78.1693 279.356C78.1693 296.648 92.9269 310.65 111.131 310.65M163.549 300C155.397 300 148.814 293.394 148.814 285.291 148.814 277.152 155.387 270.57 163.549 270.57 171.682 270.57 178.244 277.142 178.244 285.291 178.244 293.404 171.672 300 163.549 300M141.091 35.4206 185.978 35.4206C187.796 35.4206 189.281 36.673 189.281 38.2067 189.281 39.7468 187.803 40.9993 185.978 40.9993L141.091 40.9993C139.292 40.9993 137.788 39.7468 137.788 38.2067 137.788 36.673 139.273 35.4206 141.091 35.4206M91.0957 70.7301C91.0957 68.1337 93.3029 66.0278 96.0268 66.0278L231.045 66.0278C233.776 66.0278 235.973 68.1239 235.973 70.7301L235.973 255.452C235.973 258.039 233.776 260.138 231.045 260.138L96.0268 260.138C93.3029 260.138 91.0957 258.039 91.0957 255.452L91.0957 70.7301" fill="#D3D3D3" transform="matrix(1 0 0 1.07645 457 245)"/></g></g></g><path d="M512 247 722.405 574.264" stroke="#D3D3D3" stroke-width="6" stroke-miterlimit="8" fill="none" fill-rule="evenodd"/></g></svg>