<svg xmlns="http://www.w3.org/2000/svg" xmlns:xlink="http://www.w3.org/1999/xlink" version="1.1" id="Calque_1" x="0px" y="0px" style="enable-background:new 0 0 595.3 841.9;" xml:space="preserve" viewBox="288.2 411.6 19 19">
<style type="text/css">
	.st0{fill-rule:evenodd;clip-rule:evenodd;fill:#6747E4;}
</style>
<g id="add" transform="translate(-3 -3)">
	<path id="Tracé_30" class="st0" d="M291.2,424.1c0-5.2,4.3-9.5,9.5-9.5s9.5,4.3,9.5,9.5s-4.3,9.5-9.5,9.5S291.2,429.3,291.2,424.1   z M300.7,416.5c-4.2,0-7.6,3.4-7.6,7.6s3.4,7.6,7.6,7.6c4.2,0,7.6-3.4,7.6-7.6S304.9,416.5,300.7,416.5   C300.7,416.5,300.7,416.5,300.7,416.5z"/>
	<path id="Tracé_31" class="st0" d="M301.7,419.3c0-0.5-0.4-1-0.9-1c-0.5,0-1,0.4-1,0.9c0,0,0,0,0,0v3.8H296c-0.5,0-0.9,0.4-0.9,1   c0,0.5,0.4,0.9,0.9,0.9h3.8v3.8c0,0.5,0.4,1,0.9,1c0.5,0,1-0.4,1-0.9c0,0,0,0,0,0V425h3.8c0.5,0,1-0.4,1-0.9c0-0.5-0.4-1-0.9-1   c0,0,0,0,0,0h-3.8V419.3z"/>
</g>
</svg>