<svg id="Calque_1" data-name="Calque 1" xmlns="http://www.w3.org/2000/svg" viewBox="0 0 18 15.75"><defs><style>.cls-1{fill:#6747e4;fill-rule:evenodd;}</style></defs><g id="arrow-right-short"><path id="Tracé_78" data-name="Tracé 78" class="cls-1" d="M59.74,39.34a1.12,1.12,0,0,1,1.59,0h0l6.75,6.75a1.12,1.12,0,0,1,0,1.59h0l-6.75,6.75a1.12,1.12,0,1,1-1.59-1.59l5.95-6-5.95-6a1.12,1.12,0,0,1,0-1.59Z" transform="translate(-50.41 -39.01)"/><path id="Tracé_79" data-name="Tracé 79" class="cls-1" d="M50.41,46.89a1.13,1.13,0,0,1,1.13-1.13H66.16a1.13,1.13,0,1,1,0,2.25H51.54A1.12,1.12,0,0,1,50.41,46.89Z" transform="translate(-50.41 -39.01)"/></g></svg>