<svg xmlns="http://www.w3.org/2000/svg" version="1.0" preserveAspectRatio="xMidYMid meet" viewBox="89.41 56.05 593.27 409.16">
<metadata>
Created by potrace 1.16, written by Peter Selinger 2001-2019
</metadata>
<g transform="translate(0.000000,533.000000) scale(0.100000,-0.100000)" fill="#000000" stroke="none">
<path d="M3465 4750 c-33 -10 -80 -24 -104 -30 -25 -7 -58 -25 -75 -43 -25 -24 -46 -33 -101 -43 -191 -35 -285 -67 -378 -128 -84 -56 -71 -167 24 -199 l36 -12 -33 -70 c-81 -174 -105 -230 -149 -340 -16 -38 -41 -97 -56 -130 -15 -33 -39 -91 -54 -128 -14 -38 -35 -83 -46 -100 -10 -18 -24 -50 -30 -71 -6 -22 -22 -62 -35 -90 -13 -27 -24 -56 -24 -63 0 -7 -7 -31 -16 -53 -18 -43 -37 -50 -91 -29 -15 6 -66 16 -113 23 l-85 13 90 8 c50 5 102 7 118 6 15 -1 27 -1 27 1 0 5 93 269 140 398 23 63 45 126 50 140 4 14 15 41 23 60 8 19 18 53 21 74 l8 39 -501 -7 c-276 -4 -508 -9 -516 -12 -22 -9 -21 -25 15 -219 5 -27 18 -102 29 -165 11 -63 25 -144 32 -180 6 -36 13 -78 16 -95 9 -56 12 -58 119 -57 l99 1 -80 -14 c-76 -12 -126 -26 -170 -46 -11 -5 -56 -22 -100 -38 -160 -59 -246 -109 -322 -187 -44 -45 -18 -104 46 -104 19 0 75 22 139 55 124 63 309 131 400 145 103 17 357 14 427 -5 32 -9 61 -18 63 -20 3 -2 -1 -18 -8 -35 -10 -25 -17 -30 -34 -26 -159 44 -394 45 -560 1 -410 -107 -707 -428 -797 -860 -36 -172 -4 -461 65 -602 14 -29 26 -57 26 -61 0 -14 25 -62 33 -62 4 0 7 -6 7 -14 0 -30 200 -276 223 -276 3 0 19 -12 34 -26 40 -37 159 -114 177 -114 8 0 18 -5 22 -11 9 -15 98 -53 159 -68 27 -7 53 -18 57 -24 6 -9 8 -8 8 2 0 10 4 11 13 3 14 -12 95 -22 212 -27 68 -3 126 1 270 19 12 1 26 6 33 10 7 4 12 5 12 3 0 -3 48 15 107 38 58 24 110 42 115 39 5 -3 18 6 29 20 11 14 25 26 30 26 23 0 178 127 239 195 19 22 45 50 58 63 12 12 22 27 22 32 0 5 11 21 24 37 58 70 139 270 162 403 2 14 8 45 13 70 9 43 6 233 -3 275 -3 11 -8 43 -11 70 -19 143 -114 340 -235 486 -76 92 -264 249 -298 249 -22 0 -35 30 -24 53 6 12 14 32 17 45 8 29 15 28 60 -8 21 -16 41 -30 46 -30 15 0 244 -208 284 -259 22 -27 57 -69 78 -93 20 -23 37 -50 37 -60 0 -9 7 -21 15 -25 19 -11 88 -155 104 -218 7 -27 17 -61 23 -75 17 -44 37 -279 32 -384 -6 -109 -24 -207 -57 -299 -24 -68 -16 -97 34 -122 37 -20 72 -9 99 28 20 30 77 207 91 286 25 140 -23 487 -90 651 -17 41 -31 80 -31 85 0 6 -28 56 -63 112 -130 213 -401 485 -543 544 l-51 21 27 57 c15 31 42 90 60 131 18 41 36 79 40 83 11 13 133 -19 249 -66 218 -86 470 -289 542 -434 18 -38 49 -93 68 -123 19 -30 51 -86 70 -125 46 -94 116 -199 196 -293 31 -37 164 -147 187 -154 9 -3 4 -14 -15 -37 -15 -19 -34 -46 -43 -62 -14 -28 -17 -29 -67 -23 -113 13 -252 -49 -322 -144 -48 -65 -69 -133 -68 -217 2 -190 145 -341 336 -353 74 -4 71 -5 237 56 30 11 93 30 140 42 47 13 114 31 149 41 35 11 64 19 66 19 2 0 15 -37 30 -82 90 -271 282 -500 535 -635 103 -56 236 -102 340 -119 71 -12 319 -5 385 10 210 49 330 107 489 236 40 33 76 66 80 75 3 8 12 15 20 15 8 0 17 8 20 18 3 9 21 33 39 52 92 98 200 344 222 505 15 107 16 247 1 330 -24 138 -26 146 -46 200 -93 250 -242 439 -455 576 -242 156 -573 208 -860 135 -136 -35 -316 -125 -418 -211 -64 -54 -81 -64 -93 -54 -8 6 -14 17 -14 24 0 13 111 116 172 160 42 30 184 102 229 116 173 54 442 79 583 54 44 -8 93 -15 109 -15 32 0 181 -50 253 -85 28 -14 58 -25 67 -25 9 0 22 -9 29 -20 7 -11 19 -20 27 -20 12 0 74 -41 91 -60 3 -3 23 -18 45 -34 60 -43 108 -98 152 -174 117 -198 111 -186 153 -322 10 -30 24 -73 31 -95 11 -30 14 -111 14 -330 1 -159 4 -300 8 -312 10 -28 68 -49 95 -34 43 23 77 160 67 274 -3 34 -7 116 -9 182 -2 66 -12 161 -21 210 -21 116 -81 300 -111 345 -13 19 -24 38 -24 42 0 4 -20 41 -45 82 -43 71 -169 209 -245 269 -19 15 -49 38 -66 52 -118 93 -393 201 -589 232 -164 25 -267 27 -364 8 -235 -45 -332 -79 -466 -162 -38 -24 -73 -43 -78 -43 -9 0 -87 -60 -178 -138 -56 -47 -70 -51 -99 -22 -25 25 -25 32 3 83 13 23 30 61 39 83 8 23 39 73 68 112 l52 70 106 4 c131 6 173 24 280 123 75 70 87 98 62 145 -23 42 -269 82 -460 74 -229 -10 -355 -45 -432 -118 -82 -77 -28 -139 165 -190 37 -10 69 -21 72 -25 2 -4 -23 -61 -56 -127 -34 -65 -72 -141 -85 -169 -14 -27 -32 -61 -40 -75 -8 -14 -26 -50 -40 -80 -13 -30 -30 -64 -36 -75 -20 -35 -36 -68 -62 -127 -18 -41 -30 -58 -44 -58 -34 0 -192 172 -252 274 -30 51 -61 100 -68 109 -7 8 -31 52 -52 96 -38 78 -69 128 -101 161 -8 9 -43 53 -78 99 -56 74 -120 132 -290 264 -75 59 -413 207 -472 207 -25 0 -30 12 -16 41 22 41 97 227 97 238 0 6 12 36 26 68 14 32 29 67 34 78 104 242 78 221 275 228 89 4 169 9 177 12 8 3 27 -6 44 -20 16 -14 38 -25 49 -25 44 1 216 51 282 82 47 22 63 55 52 107 -8 41 -25 58 -61 65 -37 6 -213 -21 -246 -38 -15 -7 -42 -17 -60 -21 -18 -3 -36 -15 -42 -24 -12 -23 -149 -37 -330 -34 -104 1 -133 5 -172 23 -53 23 -56 28 -30 59 33 41 354 136 422 125 19 -3 107 6 195 20 148 23 162 27 182 52 21 26 35 86 24 102 -32 45 -140 55 -246 22z m-1203 -1005 c-1 -17 -7 -51 -13 -76 l-10 -45 -50 -3 -49 -2 0 44 c0 84 9 106 44 109 75 7 81 5 78 -27z m208 -42 l-28 -78 -58 -2 c-33 0 -64 0 -71 2 -14 4 13 136 31 147 6 4 43 8 82 8 l71 0 -27 -77z m-558 -13 l3 -65 -51 -3 -52 -3 -11 64 c-6 35 -11 66 -11 70 0 7 102 14 112 7 3 -3 8 -34 10 -70z m225 -931 c35 -6 63 -15 63 -21 0 -5 -51 -129 -112 -275 l-113 -266 -47 239 c-25 131 -49 260 -53 287 l-7 47 103 0 c56 0 131 -5 166 -11z m-293 -296 c36 -149 66 -278 66 -287 0 -9 -6 -16 -13 -16 -7 0 -29 -11 -49 -25 -20 -13 -38 -21 -40 -16 -2 5 -21 29 -44 53 -22 24 -62 68 -88 98 -27 30 -85 95 -129 144 -112 122 -137 150 -137 156 0 8 115 82 167 108 60 31 187 72 195 64 4 -4 36 -129 72 -279z m589 196 c51 -26 163 -107 196 -143 15 -16 21 -30 15 -35 -5 -5 -76 -61 -159 -125 -82 -63 -157 -121 -165 -128 -8 -7 -43 -31 -78 -53 -34 -22 -62 -43 -62 -47 0 -13 -30 -9 -36 5 -7 19 222 547 238 547 5 0 28 -10 51 -21z m3203 -23 c3 -7 -13 -103 -36 -212 -23 -110 -49 -236 -58 -281 l-16 -83 -48 0 c-55 0 -47 -18 -98 225 -17 83 -40 192 -51 243 -12 51 -18 96 -15 100 12 11 91 20 204 21 87 1 114 -2 118 -13z m-1052 -154 l38 -42 -40 -63 c-54 -82 -116 -216 -138 -297 -9 -36 -20 -68 -24 -73 -3 -4 -58 -3 -120 3 -138 12 -151 20 -125 77 107 231 240 500 257 520 8 10 22 3 62 -35 29 -26 69 -66 90 -90z m1291 97 c81 -34 196 -105 254 -159 29 -27 32 -33 20 -44 -8 -8 -57 -50 -109 -96 -94 -81 -248 -215 -318 -276 l-35 -31 -43 32 c-24 18 -48 35 -55 37 -9 3 -3 38 21 129 18 68 50 192 72 274 21 83 41 156 44 164 6 19 55 10 149 -30z m-626 -6 c13 -50 22 -86 25 -104 6 -32 60 -259 77 -325 24 -91 24 -114 -1 -121 -11 -3 -20 -9 -20 -14 0 -23 -30 0 -148 114 -70 67 -164 158 -209 201 -46 44 -83 83 -83 87 0 11 119 98 175 127 49 26 153 70 167 71 4 1 12 -16 17 -36z m-3684 -283 c216 -216 231 -236 203 -273 -12 -15 -38 -10 -303 58 -159 41 -300 78 -312 81 -33 9 -29 32 21 129 45 86 151 228 168 223 5 -2 105 -100 223 -218z m1234 -5 c48 -101 67 -153 58 -161 -6 -6 -84 -20 -467 -79 -156 -25 -165 -25 -177 -9 -7 10 -13 25 -13 33 1 9 104 85 246 181 135 91 248 169 252 174 9 16 61 -55 101 -139z m3436 18 c11 -14 25 -31 30 -37 38 -39 141 -268 130 -286 -4 -6 0 -17 8 -23 11 -8 17 -33 19 -77 l3 -65 -160 3 c-88 2 -243 9 -344 15 l-184 12 -14 39 c-12 36 -11 41 5 55 26 23 129 110 182 153 25 20 99 82 165 137 66 55 125 101 130 101 6 0 19 -12 30 -27z m-1225 -209 c158 -142 182 -165 177 -171 -2 -1 -43 2 -92 7 -50 5 -139 14 -200 20 -60 6 -145 15 -188 21 l-78 11 7 31 c10 48 64 170 85 193 10 11 19 24 19 28 0 4 10 20 22 36 l22 30 30 -28 c17 -16 105 -96 196 -178z m-3569 -79 c167 -36 308 -65 312 -65 5 0 7 -16 5 -36 l-3 -36 -300 -129 c-165 -71 -307 -129 -316 -129 -27 0 -52 102 -57 237 -5 141 9 223 37 223 10 0 155 -29 322 -65z m613 41 c44 -18 66 -52 66 -101 0 -52 -31 -102 -75 -121 -63 -26 -114 -13 -165 41 -21 22 -25 36 -24 81 1 30 8 61 15 71 34 40 122 55 183 29z m831 -52 c14 -104 5 -257 -17 -324 -7 -19 -12 -39 -13 -45 -1 -26 -55 -5 -326 130 -378 189 -374 179 -100 224 110 18 219 34 243 37 24 3 75 10 113 17 39 7 75 13 82 13 7 0 15 -21 18 -52z m1067 -61 c41 -16 54 -27 105 -84 30 -33 58 -144 45 -173 -6 -12 -16 -38 -22 -59 -13 -40 -37 -66 -105 -113 -35 -24 -50 -28 -110 -27 -114 0 -190 48 -235 149 -39 85 -11 208 61 268 66 55 179 72 261 39z m401 -42 l48 -6 2 -134 2 -134 -105 -29 c-58 -15 -108 -28 -112 -28 -4 0 -1 19 7 41 28 78 17 184 -30 292 -7 17 -3 18 66 11 41 -4 96 -10 122 -13z m477 -46 c4 -3 41 -7 81 -10 41 -3 83 -7 94 -10 11 -2 45 -4 74 -4 63 -1 59 -14 -9 -29 -25 -5 -130 -33 -234 -61 -105 -28 -201 -51 -214 -51 -22 0 -24 3 -18 35 4 22 3 35 -4 35 -13 0 -13 25 1 74 l11 39 105 -7 c58 -3 109 -8 113 -11z m-2363 -141 c354 -195 335 -183 328 -208 -10 -34 -29 -69 -47 -88 -10 -10 -18 -24 -18 -31 0 -7 -20 -33 -45 -57 -25 -24 -45 -50 -45 -57 0 -7 -4 -13 -9 -13 -5 0 -23 -13 -41 -30 -18 -16 -35 -30 -40 -30 -4 0 -18 -10 -32 -22 -36 -33 -90 -60 -98 -51 -6 7 -70 158 -218 519 l-50 121 27 42 c14 22 29 41 33 41 5 0 119 -61 255 -136z m-662 98 c23 -16 36 -52 25 -71 -5 -11 -14 -21 -18 -23 -5 -1 -49 -53 -98 -113 -206 -256 -308 -375 -319 -375 -44 0 -235 251 -235 310 0 10 98 57 308 147 169 73 312 132 317 132 6 1 15 -3 20 -7z m4308 -53 l317 -23 0 -46 c-1 -69 -32 -200 -55 -230 -7 -8 -15 -27 -19 -42 -3 -16 -13 -28 -22 -28 -13 0 -553 270 -611 306 -21 13 -21 15 -5 55 14 37 18 40 46 35 17 -2 174 -15 349 -27z m-4180 -36 c14 -5 21 -20 19 -44 -1 -3 -3 -46 -6 -95 -10 -155 -28 -418 -31 -449 -1 -16 -3 -52 -4 -78 l-1 -48 -57 6 c-72 8 -256 68 -305 101 -21 13 -41 24 -46 24 -5 0 -16 8 -25 18 -16 17 -7 31 156 246 94 126 189 253 210 283 29 41 43 53 55 48 10 -4 25 -10 35 -12z m3350 -24 c15 -22 27 -44 27 -48 0 -4 -44 -59 -97 -122 -54 -64 -152 -180 -217 -257 -66 -78 -123 -142 -127 -142 -4 0 -17 12 -30 26 -13 15 -36 39 -50 53 -28 29 -109 161 -109 179 0 6 -8 26 -18 44 -10 18 -24 55 -31 82 -14 58 -14 59 74 80 88 22 390 102 465 125 88 25 83 26 113 -20z m-3166 -1 c6 -18 20 -55 30 -83 55 -140 192 -512 195 -525 2 -8 -1 -14 -7 -15 -5 0 -21 -7 -35 -15 -14 -7 -41 -17 -60 -21 -70 -14 -146 -27 -192 -33 l-48 -6 0 248 c0 136 3 297 7 359 6 111 6 112 32 116 62 10 67 8 78 -25z m3888 -217 c33 -17 65 -34 70 -38 10 -8 96 -53 190 -101 l45 -23 -15 -30 c-9 -16 -22 -32 -30 -35 -7 -3 -16 -15 -19 -27 -4 -19 -77 -100 -118 -132 -7 -6 -35 -29 -63 -51 -49 -40 -125 -88 -130 -82 -2 2 -76 149 -165 328 l-162 325 27 23 27 23 141 -75 c78 -41 169 -88 202 -105z m-614 129 c18 -10 19 -25 19 -376 l0 -366 -52 7 c-29 4 -87 18 -128 32 -116 39 -300 142 -300 168 0 7 64 93 143 192 78 98 151 190 162 204 77 99 119 149 127 149 5 0 18 -5 29 -10z m173 -26 c9 -8 16 -20 16 -25 0 -6 15 -43 34 -82 69 -145 106 -229 106 -241 0 -6 4 -16 9 -21 8 -8 131 -280 131 -289 0 -2 -33 -13 -72 -24 -89 -26 -185 -42 -255 -42 l-53 0 -1 48 c-1 26 -3 65 -4 87 -1 22 -5 121 -9 220 -3 99 -8 223 -11 275 l-5 95 43 6 c23 3 45 7 49 7 4 1 14 -5 22 -14z"/>
<path d="M3771 1833 c-87 -43 -108 -159 -40 -229 81 -84 223 -58 264 49 48 127 -96 243 -224 180z"/>
</g>
</svg>