<?xml version="1.0" encoding="utf-8"?>
<!-- Generator: Adobe Illustrator 26.0.1, SVG Export Plug-In . SVG Version: 6.00 Build 0)  -->
<svg version="1.1" id="Calque_1" xmlns="http://www.w3.org/2000/svg" xmlns:xlink="http://www.w3.org/1999/xlink" x="0px" y="0px"
	 viewBox="0 0 64 64" style="enable-background:new 0 0 64 64;" xml:space="preserve">
<style type="text/css">
	.st0{fill:#e0dbf8;}
</style>
<g id="Layer_100">
	<path class="st0" d="M44.8,10.5H24.9c-2.8,0-5,2.2-5,5v27.3c0,2.8,2.2,5,5,5h19.9c2.8,0,5-2.2,5-5V15.5
		C49.8,12.7,47.6,10.5,44.8,10.5z M46.8,42.8c0,1.1-0.9,2-2,2H24.9c-1.1,0-2-0.9-2-2V15.5c0-1.1,0.9-2,2-2h19.9c1.1,0,2,0.9,2,2
		V42.8z"/>
	<path class="st0" d="M39.1,50.5H19.2c-1.1,0-2-0.9-2-2V21.2c0-0.8-0.7-1.5-1.5-1.5c-0.8,0-1.5,0.7-1.5,1.5v27.3c0,2.8,2.2,5,5,5
		h19.9c0.8,0,1.5-0.7,1.5-1.5C40.6,51.2,39.9,50.5,39.1,50.5z"/>
</g>
</svg>
