<svg id="Calque_1" data-name="Calque 1" xmlns="http://www.w3.org/2000/svg" viewBox="0 0 24 24"><defs><style>.cls-1,.cls-2{fill:#6747e4;}.cls-2{fill-rule:evenodd;}</style></defs><path id="Tracé_75" data-name="Tracé 75" class="cls-1" d="M57.08,49.06v-8h-.95a18.9,18.9,0,0,0-2,1.21v1c.56-.38,1.45-.93,1.89-1.16h0v6.91Zm1.78-2a2.39,2.39,0,0,0,2.56,2.11c1.88,0,3-1.6,3-4.3,0-2.9-1.18-4-2.93-4a2.62,2.62,0,0,0-2.7,2.57v.14a2.48,2.48,0,0,0,2.31,2.65h.2a2.1,2.1,0,0,0,2.08-1.18h0c0,2-.69,3.25-2,3.25a1.5,1.5,0,0,1-1.58-1.23h-1Zm4.43-3.47a1.76,1.76,0,0,1-1.75,1.77h0a1.65,1.65,0,0,1-1.72-1.58,1.62,1.62,0,0,1,0-.22,1.69,1.69,0,0,1,1.58-1.81h.17a1.68,1.68,0,0,1,1.75,1.6A2.09,2.09,0,0,1,63.29,43.63Z" transform="translate(-47.41 -31.53)"/><path id="Tracé_76" data-name="Tracé 76" class="cls-2" d="M48.91,37.53v15a1.5,1.5,0,0,0,1.5,1.5h18a1.5,1.5,0,0,0,1.5-1.5v-15Zm1.5-4.5a3,3,0,0,0-3,3v16.5a3,3,0,0,0,3,3h18a3,3,0,0,0,3-3V36a3,3,0,0,0-3-3Z" transform="translate(-47.41 -31.53)"/><path id="Tracé_77" data-name="Tracé 77" class="cls-2" d="M52.66,31.53a.75.75,0,0,1,.75.75V33a.75.75,0,0,1-1.5,0v-.75A.76.76,0,0,1,52.66,31.53Zm13.5,0a.75.75,0,0,1,.75.75V33a.75.75,0,0,1-1.5,0v-.75A.76.76,0,0,1,66.16,31.53Z" transform="translate(-47.41 -31.53)"/></svg>