<svg xmlns:dc="http://purl.org/dc/elements/1.1/" xmlns:cc="http://creativecommons.org/ns#" xmlns:rdf="http://www.w3.org/1999/02/22-rdf-syntax-ns#" xmlns:svg="http://www.w3.org/2000/svg" xmlns="http://www.w3.org/2000/svg" xmlns:sodipodi="http://sodipodi.sourceforge.net/DTD/sodipodi-0.dtd" xmlns:inkscape="http://www.inkscape.org/namespaces/inkscape" version="1.1" id="svg8" inkscape:version="0.92.5 (2060ec1f9f, 2020-04-08)" sodipodi:docname="dot.svg" viewBox="61.99 96.67 6.8 6.8">
  <defs id="defs2">
    <filter style="color-interpolation-filters:sRGB;" inkscape:label="Colorize" id="filter28">
      <feComposite in2="SourceGraphic" operator="arithmetic" k1="0" k2="1" result="composite1" id="feComposite14"/>
      <feColorMatrix in="composite1" values="1" type="saturate" result="colormatrix1" id="feColorMatrix16"/>
      <feFlood flood-opacity="0" flood-color="rgb(103,71,228)" result="flood1" id="feFlood18"/>
      <feBlend in="flood1" in2="colormatrix1" mode="multiply" result="blend1" id="feBlend20"/>
      <feBlend in2="blend1" mode="screen" result="blend2" id="feBlend22"/>
      <feColorMatrix in="blend2" values="1" type="saturate" result="colormatrix2" id="feColorMatrix24"/>
      <feComposite in="colormatrix2" in2="SourceGraphic" operator="in" k2="1" result="composite2" id="feComposite26"/>
    </filter>
  </defs>
  <sodipodi:namedview id="base" pagecolor="#ffffff" bordercolor="#666666" borderopacity="1.0" inkscape:pageopacity="0.0" inkscape:pageshadow="2" inkscape:zoom="9.8759248" inkscape:cx="225.62414" inkscape:cy="733.11826" inkscape:document-units="mm" inkscape:current-layer="layer1" showgrid="false" inkscape:window-width="1848" inkscape:window-height="1016" inkscape:window-x="72" inkscape:window-y="27" inkscape:window-maximized="1"/>
  <metadata id="metadata5">
    <rdf:RDF>
      <cc:Work rdf:about="">
        <dc:format>image/svg+xml</dc:format>
        <dc:type rdf:resource="http://purl.org/dc/dcmitype/StillImage"/>
        <dc:title/>
      </cc:Work>
    </rdf:RDF>
  </metadata>
  <g inkscape:label="Calque 1" inkscape:groupmode="layer" id="layer1">
    <circle id="path10" cx="65.389877" cy="100.0744" r="3.4017856" style="stroke-width:0.26458332"/>
    <path style="stroke-width:0.10125634;filter:url(#filter28)" d="m 245.95515,390.98012 c -6.04193,-0.57872 -10.83434,-5.3023 -11.54097,-11.37524 -0.76743,-6.59535 3.94288,-12.84459 10.53499,-13.97696 1.20329,-0.2067 3.22804,-0.2101 4.387,-0.007 6.1369,1.07348 10.60157,6.4014 10.60274,12.6528 10e-4,5.80999 -4.06749,10.99438 -9.72006,12.3858 -0.78401,0.19299 -2.79723,0.44316 -3.29038,0.40888 -0.11138,-0.008 -0.54937,-0.0473 -0.97332,-0.0879 z" id="path12" inkscape:connector-curvature="0" transform="scale(0.26458333)"/>
    <path style="stroke-width:0.10125634;fill:#6747e3;fill-opacity:0" d="m 245.89212,390.97778 c -3.82222,-0.40177 -7.27367,-2.47611 -9.37708,-5.63567 -2.58501,-3.883 -2.88831,-8.70408 -0.80778,-12.84037 1.81419,-3.60679 5.29524,-6.19588 9.24191,-6.87382 1.20867,-0.20762 3.22726,-0.20983 4.40945,-0.005 4.58531,0.79517 8.42939,4.11398 9.91735,8.5622 2.61308,7.81175 -2.71512,15.97103 -10.96595,16.79256 -1.14553,0.11406 -1.33198,0.11405 -2.4179,-9e-5 z" id="path30" inkscape:connector-curvature="0" transform="scale(0.26458333)"/>
    <path style="fill:#6747e3;fill-opacity:0;stroke-width:0.10125634" d="m 245.80068,390.97532 c -3.75344,-0.42081 -7.20545,-2.51824 -9.34018,-5.67506 -0.84333,-1.2471 -1.6705,-3.33853 -1.9582,-4.95116 -0.19229,-1.07781 -0.16793,-3.3902 0.0472,-4.48311 1.03601,-5.26266 5.19267,-9.34519 10.43291,-10.24684 1.15685,-0.19905 3.23016,-0.1981 4.37768,0.002 1.76183,0.30724 3.68178,1.11188 5.20309,2.1806 1.55361,1.09141 3.16628,2.97597 4.03638,4.71692 1.47214,2.94555 1.73987,6.54027 0.71964,9.6623 -1.44962,4.436 -5.36752,7.86758 -9.86849,8.64354 -1.12879,0.19461 -2.68561,0.25892 -3.65005,0.1508 z" id="path4543" inkscape:connector-curvature="0" transform="scale(0.26458333)"/>
    <path style="fill:#6747e3;fill-opacity:1;stroke-width:0.10125634" d="m 245.80068,390.97532 c -3.75344,-0.42081 -7.20545,-2.51824 -9.34018,-5.67506 -0.84333,-1.2471 -1.6705,-3.33853 -1.9582,-4.95116 -0.19229,-1.07781 -0.16793,-3.3902 0.0472,-4.48311 1.03601,-5.26266 5.19267,-9.34519 10.43291,-10.24684 1.15685,-0.19905 3.23016,-0.1981 4.37768,0.002 1.76183,0.30724 3.68178,1.11188 5.20309,2.1806 1.55361,1.09141 3.16628,2.97597 4.03638,4.71692 1.47214,2.94555 1.73987,6.54027 0.71964,9.6623 -1.44962,4.436 -5.36752,7.86758 -9.86849,8.64354 -1.12879,0.19461 -2.68561,0.25892 -3.65005,0.1508 z" id="path4545" inkscape:connector-curvature="0" transform="scale(0.26458333)"/>
  </g>
</svg>