<svg xmlns="http://www.w3.org/2000/svg" xmlns:xlink="http://www.w3.org/1999/xlink" version="1.1" id="Calque_1" x="0px" y="0px" style="enable-background:new 0 0 595.3 841.9;" xml:space="preserve" viewBox="289.67 410.95 16 20.3">
<style type="text/css">
	.st0{fill:#6747E4;}
</style>
<g id="location" transform="translate(-5.625 -2.25)">
	<path id="Tracé_33" class="st0" d="M303.3,424.8c-2,0-3.6-1.6-3.6-3.6c0-2,1.6-3.6,3.6-3.6s3.6,1.6,3.6,3.6l0,0   C307,423.1,305.3,424.8,303.3,424.8z M303.3,418.9c-1.2,0-2.2,1-2.2,2.2s1,2.2,2.2,2.2s2.2-1,2.2-2.2l0,0   C305.5,419.9,304.5,418.9,303.3,418.9z"/>
	<path id="Tracé_34" class="st0" d="M303.3,433.5l-6.1-7.2c-0.1-0.1-0.2-0.2-0.3-0.3c-1-1.4-1.6-3.1-1.6-4.8c0-4.4,3.6-8,8-8   s8,3.6,8,8c0,1.7-0.6,3.4-1.6,4.8l0,0c0,0-0.2,0.3-0.3,0.3L303.3,433.5z M298.1,425c0,0,0.2,0.2,0.2,0.3l5,5.9l5-5.9   c0,0,0.2-0.3,0.2-0.3c0.9-1.1,1.3-2.5,1.3-3.9c0-3.6-2.9-6.5-6.5-6.5c-3.6,0-6.5,2.9-6.5,6.5C296.8,422.5,297.3,423.9,298.1,425z"/>
</g>
</svg>