<svg viewBox="0 0 349.478 349.478" xmlns="http://www.w3.org/2000/svg" xmlns:xlink="http://www.w3.org/1999/xlink" id="Capa_1" overflow="hidden"><g><path d="M304.883 343.161 195.466 343.161 195.466 227.671 154.013 227.671 154.013 343.161 44.596 343.161 44.596 206.861 0 206.861 68.124 128.672 68.124 36.016 126.403 36.016 126.403 61.794 174.739 6.318 349.478 206.861 304.882 206.861 304.882 343.161ZM208.319 330.307 292.029 330.307 292.029 194.007 321.239 194.007 174.739 25.881 113.549 96.113 113.549 48.87 80.978 48.87 80.978 133.492 28.246 194.007 57.456 194.007 57.456 330.307 141.159 330.307 141.159 214.817 208.319 214.817 208.319 330.307Z" fill="#6747E4"/></g><g></g><g></g><g></g><g></g><g></g><g></g><g></g><g></g><g></g><g></g><g></g><g></g><g></g><g></g><g></g></svg>