<svg xmlns="http://www.w3.org/2000/svg" xmlns:xlink="http://www.w3.org/1999/xlink" version="1.1" id="Calque_1" x="0px" y="0px" style="enable-background:new 0 0 595.3 841.9;" xml:space="preserve" viewBox="292.7 416.1 10 10">
<style type="text/css">
	.st0{fill:#A0D2DB;}
	.st1{fill-rule:evenodd;clip-rule:evenodd;fill:#A0D2DB;}
</style>
<path id="Tracé_22" class="st0" d="M297.2,420.5c0-0.3,0.2-0.5,0.5-0.5c0.3,0,0.5,0.2,0.5,0.5v3c0,0.3-0.2,0.5-0.5,0.5  c-0.3,0-0.5-0.2-0.5-0.5V420.5z"/>
<path id="Tracé_23" class="st0" d="M297.7,418.1c-0.3,0-0.5,0.2-0.5,0.5c0,0.3,0.2,0.5,0.5,0.5c0.3,0,0.5-0.2,0.5-0.5  C298.2,418.3,298,418.1,297.7,418.1z"/>
<path id="Tracé_24" class="st1" d="M297.7,416.1c-2.8,0-5,2.2-5,5c0,2.8,2.2,5,5,5c2.8,0,5-2.2,5-5  C302.7,418.3,300.5,416.1,297.7,416.1z M293.7,421.1c0,2.2,1.8,4,4,4s4-1.8,4-4s-1.8-4-4-4S293.7,418.8,293.7,421.1z"/>
</svg>