<svg xmlns="http://www.w3.org/2000/svg" xmlns:xlink="http://www.w3.org/1999/xlink" version="1.1" id="Calque_1" x="0px" y="0px" style="enable-background:new 0 0 595.3 841.9;" xml:space="preserve" viewBox="291.1 414.6 13.62 13.45">
<style type="text/css">
	.st0{fill:#A0D2DB;}
</style>
<path id="magnifying-glass-2" class="st0" d="M304.2,425.4l-2.3-2.3l-1.8-0.7c1.6-2.2,1-5.3-1.2-6.9c-2.2-1.6-5.3-1-6.9,1.2  s-1,5.3,1.2,6.9c1.7,1.2,4,1.2,5.7,0l0.7,1.7l2.3,2.3c0.6,0.6,1.6,0.6,2.2,0C304.9,427,304.9,426,304.2,425.4  C304.3,425.4,304.3,425.4,304.2,425.4L304.2,425.4z M292.1,419.5c0-2.2,1.8-4,4-4s4,1.8,4,4c0,2.2-1.8,4-4,4  C293.9,423.6,292.1,421.8,292.1,419.5z M303.6,426.9c-0.3,0.3-0.7,0.3-1,0l-2.1-2.1l-0.7-1.6l1.6,0.7l2.1,2.2  C303.9,426.3,303.9,426.7,303.6,426.9z"/>
</svg>