<?xml version="1.0" standalone="no"?>
<!DOCTYPE svg PUBLIC "-//W3C//DTD SVG 20010904//EN"
 "http://www.w3.org/TR/2001/REC-SVG-20010904/DTD/svg10.dtd">
<svg version="1.0" xmlns="http://www.w3.org/2000/svg"
 width="1024.000000pt" height="683.000000pt" viewBox="0 0 1024.000000 683.000000"
 preserveAspectRatio="xMidYMid meet">

<g transform="translate(0.000000,683.000000) scale(0.100000,-0.100000)"
fill="#000000" stroke="none">
<path d="M4986 6185 c-186 -47 -347 -201 -400 -384 -21 -73 -21 -230 0 -302
56 -186 197 -327 383 -383 67 -20 226 -21 296 -2 124 33 257 130 326 237 106
166 110 402 10 574 -66 113 -176 203 -301 245 -84 29 -231 36 -314 15z"/>
<path d="M4540 4936 c-73 -14 -148 -45 -197 -82 -18 -14 -133 -134 -256 -267
-534 -583 -938 -1026 -957 -1050 l-21 -27 333 0 333 1 290 317 290 316 3 -303
c2 -283 3 -303 20 -296 9 4 137 52 285 106 147 54 274 102 283 107 15 8 57
101 171 380 25 61 52 112 59 112 17 0 126 -40 137 -50 5 -4 -28 -95 -73 -201
-45 -107 -98 -232 -118 -279 -19 -47 -40 -90 -46 -96 -6 -6 -189 -77 -407
-158 -275 -102 -408 -157 -432 -177 -123 -101 -92 -302 55 -363 74 -31 116
-23 394 80 142 52 353 130 469 172 253 92 260 98 324 252 23 58 62 152 86 210
216 519 286 693 294 731 6 24 11 76 11 114 1 235 -145 421 -357 455 -86 14
-893 11 -973 -4z"/>
<path d="M5761 3667 c-170 -401 -190 -442 -236 -491 -56 -58 -94 -76 -355
-171 -118 -43 -217 -80 -220 -82 -2 -3 32 -40 76 -84 l81 -79 377 0 376 0 0
565 c0 311 -1 565 -2 565 -2 0 -45 -100 -97 -223z"/>
<path d="M2975 3306 c-56 -26 -119 -90 -143 -145 -20 -47 -20 -155 0 -202 22
-50 83 -116 132 -142 40 -22 49 -22 546 -25 l505 -3 179 -270 c116 -175 175
-273 168 -278 -7 -4 -139 -17 -294 -29 -1493 -118 -1601 -128 -1645 -150 -46
-24 -109 -91 -128 -136 -54 -130 -2 -279 125 -350 l55 -31 1098 -3 c603 -1
1097 1 1097 6 0 4 -10 28 -22 53 -19 37 -23 60 -23 149 0 97 3 110 30 164 41
81 106 146 190 187 l70 34 500 6 500 5 314 68 c172 37 315 65 317 63 8 -8 42
-177 36 -177 -4 0 -146 -30 -317 -67 l-310 -67 -500 -5 -500 -6 -47 -28 c-52
-30 -92 -88 -103 -150 -17 -93 54 -202 147 -225 59 -15 1723 -17 1812 -2 187
30 348 184 387 368 14 67 7 177 -15 247 -47 152 -209 289 -371 315 -35 6 -384
10 -848 10 l-788 0 -180 178 c-99 97 -184 178 -188 180 -4 1 -70 -21 -147 -49
-76 -28 -161 -55 -189 -59 -156 -25 -338 68 -409 209 -39 75 -53 176 -37 253
7 35 22 78 33 96 l20 32 -504 0 -503 0 -50 -24z"/>
<path d="M7634 2845 c-134 -29 -274 -133 -336 -251 -106 -198 -65 -441 101
-596 197 -184 486 -184 685 2 163 153 203 397 98 594 -37 71 -145 175 -215
209 -65 31 -171 57 -232 56 -22 0 -67 -7 -101 -14z"/>
<path d="M7415 1666 c-27 -13 -99 -62 -160 -110 -130 -102 -239 -162 -333
-181 -57 -13 -405 -15 -2320 -15 -2407 0 -2298 2 -2316 -45 -3 -9 -6 -76 -6
-148 0 -107 4 -140 19 -173 22 -47 59 -80 110 -94 25 -8 923 -10 2867 -8
l2830 3 37 25 c20 13 46 43 59 65 22 38 23 50 26 290 2 137 1 264 -3 282 -8
43 -50 92 -100 114 -36 17 -71 19 -350 19 -305 0 -311 -1 -360 -24z"/>
</g>
</svg>
