<svg id="Calque_1" data-name="Calque 1" xmlns="http://www.w3.org/2000/svg" viewBox="0 0 24 24"><defs><style>.cls-1{fill:#6747e4;}</style></defs><g id="Groupe_74" data-name="Groupe 74"><g id="Groupe_73" data-name="Groupe 73"><path id="Tracé_59" data-name="Tracé 59" class="cls-1" d="M59.41,31.53a12,12,0,1,0,12,12A12,12,0,0,0,59.41,31.53Zm0,23a11,11,0,1,1,11-11A11,11,0,0,1,59.41,54.49Z" transform="translate(-47.41 -31.53)"/></g></g><g id="Groupe_76" data-name="Groupe 76"><g id="Groupe_75" data-name="Groupe 75"><path id="Tracé_60" data-name="Tracé 60" class="cls-1" d="M65.66,40.93H62V37.28a.51.51,0,0,0-.51-.52H57.33a.52.52,0,0,0-.52.52h0v3.65H53.17a.51.51,0,0,0-.52.51h0v4.16a.51.51,0,0,0,.51.52h3.65v3.64a.51.51,0,0,0,.51.52h4.17a.51.51,0,0,0,.52-.51h0V46.13h3.65a.53.53,0,0,0,.52-.51h0V41.45A.56.56,0,0,0,65.66,40.93Zm-.49,4.16H61.49a.52.52,0,0,0-.52.52h0v3.64H57.85V45.61a.52.52,0,0,0-.52-.52H53.69V42h3.64a.51.51,0,0,0,.52-.51h0V37.8H61v3.65a.52.52,0,0,0,.52.52h3.65Z" transform="translate(-47.41 -31.53)"/></g></g></svg>