<svg id="Calque_1" data-name="Calque 1" xmlns="http://www.w3.org/2000/svg" viewBox="0 0 13.05 17.4"><defs><style>.cls-1{fill:#6747e4;}</style></defs><path id="p" class="cls-1" d="M61.59,49.65H55.06v5.44a1,1,0,0,1-.32.77,1.09,1.09,0,0,1-.77.32,1.06,1.06,0,0,1-.77-.32,1,1,0,0,1-.31-.77V39.86a1,1,0,0,1,.31-.76,1,1,0,0,1,.77-.32h7.62a4.17,4.17,0,0,1,3.07,1.27,4.25,4.25,0,0,1,1.28,3.08V45.3a4.25,4.25,0,0,1-1.28,3.08A4.17,4.17,0,0,1,61.59,49.65Zm2.17-6.52A2.17,2.17,0,0,0,61.59,41H55.06v6.53h6.53a2.18,2.18,0,0,0,2.17-2.18h0Z" transform="translate(-52.89 -38.78)"/></svg>