<svg id="Calque_1" data-name="Calque 1" xmlns="http://www.w3.org/2000/svg" viewBox="0 0 25 25"><defs><style>.cls-1{fill:#6747e4;}</style></defs><g id="Groupe_46" data-name="Groupe 46"><g id="Groupe_45" data-name="Groupe 45"><path id="Tracé_40" data-name="Tracé 40" class="cls-1" d="M59.41,27.58a2.92,2.92,0,1,0,2.92,2.92,2.92,2.92,0,0,0-2.92-2.92Zm0,5a2.08,2.08,0,1,1,2.08-2.08h0A2.08,2.08,0,0,1,59.41,32.58Z" transform="translate(-46.91 -27.58)"/></g></g><g id="Groupe_48" data-name="Groupe 48"><g id="Groupe_47" data-name="Groupe 47"><path id="Tracé_41" data-name="Tracé 41" class="cls-1" d="M60.66,33.83h-2.5a3.76,3.76,0,0,0-3.75,3.75v7.09h1.67v7.91h.83V43h-.83v.83h-.83V37.58a2.91,2.91,0,0,1,2.91-2.91h2.5a2.91,2.91,0,0,1,2.92,2.91v6.25h-.83V43h-.84v9.58h.83V44.67h1.67V37.58A3.76,3.76,0,0,0,60.66,33.83Z" transform="translate(-46.91 -27.58)"/></g></g><g id="Groupe_50" data-name="Groupe 50"><g id="Groupe_49" data-name="Groupe 49"><rect id="Rectangle_81" data-name="Rectangle 81" class="cls-1" x="12" y="17" width="1" height="8"/></g></g><g id="Groupe_52" data-name="Groupe 52"><g id="Groupe_51" data-name="Groupe 51"><path id="Tracé_42" data-name="Tracé 42" class="cls-1" d="M67.74,31.75a2.5,2.5,0,1,0,2.5,2.5A2.5,2.5,0,0,0,67.74,31.75Zm0,4.17a1.67,1.67,0,1,1,1.67-1.67h0A1.67,1.67,0,0,1,67.74,35.92Z" transform="translate(-46.91 -27.58)"/></g></g><g id="Groupe_54" data-name="Groupe 54"><g id="Groupe_53" data-name="Groupe 53"><path id="Tracé_43" data-name="Tracé 43" class="cls-1" d="M69,37.17H65.24V38H69a2.09,2.09,0,0,1,2.09,2.08V45.5h-.84v-.83h-.83v7.91h.83V46.33h1.67V40.08A2.91,2.91,0,0,0,69,37.17Z" transform="translate(-46.91 -27.58)"/></g></g><g id="Groupe_56" data-name="Groupe 56"><g id="Groupe_55" data-name="Groupe 55"><path id="Tracé_44" data-name="Tracé 44" class="cls-1" d="M65.25,44.67v.83H63.58v.83h1.67v6.25h.83V44.67Z" transform="translate(-46.91 -27.58)"/></g></g><g id="Groupe_58" data-name="Groupe 58"><g id="Groupe_57" data-name="Groupe 57"><rect id="Rectangle_82" data-name="Rectangle 82" class="cls-1" x="20" y="19" width="1" height="6"/></g></g><g id="Groupe_60" data-name="Groupe 60"><g id="Groupe_59" data-name="Groupe 59"><path id="Tracé_45" data-name="Tracé 45" class="cls-1" d="M51.08,31.75a2.5,2.5,0,1,0,2.5,2.5A2.5,2.5,0,0,0,51.08,31.75Zm0,4.17a1.67,1.67,0,1,1,1.67-1.67h0A1.67,1.67,0,0,1,51.08,35.92Z" transform="translate(-46.91 -27.58)"/></g></g><g id="Groupe_62" data-name="Groupe 62"><g id="Groupe_61" data-name="Groupe 61"><path id="Tracé_46" data-name="Tracé 46" class="cls-1" d="M49.83,37.17a2.91,2.91,0,0,0-2.92,2.91v6.25h1.67v6.25h.83V44.67h-.83v.83h-.84V40.08A2.09,2.09,0,0,1,49.83,38h3.75v-.83Z" transform="translate(-46.91 -27.58)"/></g></g><g id="Groupe_64" data-name="Groupe 64"><g id="Groupe_63" data-name="Groupe 63"><path id="Tracé_47" data-name="Tracé 47" class="cls-1" d="M53.58,45.5v-.83h-.84v7.91h.84V46.33h1.66V45.5Z" transform="translate(-46.91 -27.58)"/></g></g><g id="Groupe_66" data-name="Groupe 66"><g id="Groupe_65" data-name="Groupe 65"><rect id="Rectangle_83" data-name="Rectangle 83" class="cls-1" x="4" y="19" width="1" height="6"/></g></g></svg>