<svg id="Calque_1" data-name="Calque 1" xmlns="http://www.w3.org/2000/svg" viewBox="0 0 28.42 32.35"><defs><style>.cls-1{fill:#6747e4;}</style></defs><g id="group-of-users-silhouette"><path id="Tracé_61" data-name="Tracé 61" class="cls-1" d="M54.89,31.88a4.52,4.52,0,1,1,4.52,4.52,4.52,4.52,0,0,1-4.52-4.52Zm6.7,7.6a4.85,4.85,0,0,1,.93-2.65,5.93,5.93,0,0,0-1.19-.12H57.49a5.91,5.91,0,0,0-1.18.12,5,5,0,0,1,.94,2.85,4.94,4.94,0,0,1,4.34-.2Zm.76.41a5.12,5.12,0,0,1,2.4,3.83,4.17,4.17,0,1,0-2-5.54A4.24,4.24,0,0,0,62.35,39.89Zm-2.73,8.53a4.17,4.17,0,1,0-4.17-4.17h0a4.17,4.17,0,0,0,4.17,4.16Zm1.77.28H57.85A5.34,5.34,0,0,0,52.52,54v4.39l.3.09a24.12,24.12,0,0,0,7.25,1.17,14.81,14.81,0,0,0,6.34-1.18l.28-.15h0V54a5.35,5.35,0,0,0-5.34-5.33Zm6.9-4.3H64.78A5.16,5.16,0,0,1,63.19,48a6.35,6.35,0,0,1,4.53,6.07v1.33a14.15,14.15,0,0,0,5.59-1.18l.28-.14h0V49.74a5.34,5.34,0,0,0-5.34-5.33Zm-16-.28a4.13,4.13,0,0,0,2.21-.65,5.16,5.16,0,0,1,1.94-3.28c0-.08,0-.16,0-.24a4.17,4.17,0,1,0-4.17,4.17h0ZM56.06,48a5.11,5.11,0,0,1-1.59-3.55l-.39,0H50.54a5.34,5.34,0,0,0-5.34,5.33v4.39l.3.1a25.12,25.12,0,0,0,6,1.13V54.05A6.36,6.36,0,0,1,56.05,48Z" transform="translate(-45.2 -27.36)"/></g></svg>