<svg xmlns="http://www.w3.org/2000/svg" xmlns:xlink="http://www.w3.org/1999/xlink" version="1.1" id="Calque_1" x="0px" y="0px" style="enable-background:new 0 0 595.3 841.9;" xml:space="preserve" viewBox="288.99 412.3 17.42 17.4">
<style type="text/css">
	.st0{fill:#6747E4;}
</style>
<path id="phone" class="st0" d="M304.4,429.7h-0.1c-13.1-0.8-15-11.8-15.3-15.2c-0.1-1.1,0.7-2.1,1.8-2.2c0,0,0,0,0,0h3.7  c0.5,0,1,0.3,1.2,0.8l1,2.5c0.2,0.5,0.1,1.1-0.3,1.4l-1.4,1.4c0.5,2.6,2.5,4.6,5.1,5.1l1.5-1.4c0.4-0.4,1-0.5,1.5-0.3l2.5,1  c0.5,0.2,0.8,0.7,0.8,1.2v3.5C306.5,428.8,305.6,429.7,304.4,429.7C304.4,429.7,304.4,429.7,304.4,429.7z M291.1,413.7  c-0.4,0-0.7,0.3-0.7,0.7l0,0v0.1c0.3,4,2.3,13.3,14,14c0.4,0,0.7-0.3,0.7-0.6c0,0,0,0,0,0v-3.6l-2.5-1l-1.9,1.9l-0.3,0  c-5.8-0.7-6.6-6.5-6.6-6.6l0-0.3l1.9-1.9l-1-2.5L291.1,413.7z"/>
</svg>