<svg id="Calque_1" data-name="Calque 1" xmlns="http://www.w3.org/2000/svg" viewBox="0 0 21.64 21.68"><defs><style>.cls-1{fill:#6747e4;}</style></defs><path id="gps" class="cls-1" d="M68.2,42.56h2V44.5h-2a8.45,8.45,0,0,1-2.51,5.28,8.72,8.72,0,0,1-5.28,2.56v2h-2v-2a8.81,8.81,0,0,1-5.26-2.56,8.44,8.44,0,0,1-2.54-5.28h-2V42.56h2a8.44,8.44,0,0,1,2.54-5.28,8.81,8.81,0,0,1,5.26-2.56v-2h2v2a8.67,8.67,0,0,1,5.29,2.56A8.45,8.45,0,0,1,68.2,42.56ZM59.43,50.4A6.88,6.88,0,0,0,64.3,38.66a6.64,6.64,0,0,0-4.87-2,6.76,6.76,0,0,0-4.89,2,6.86,6.86,0,0,0,0,9.74A6.71,6.71,0,0,0,59.43,50.4Z" transform="translate(-48.59 -32.69)"/></svg>