<?xml version="1.0" encoding="utf-8"?>
<!-- Generator: Adobe Illustrator 26.0.1, SVG Export Plug-In . SVG Version: 6.00 Build 0)  -->
<svg version="1.1" id="Capa_1" xmlns="http://www.w3.org/2000/svg" xmlns:xlink="http://www.w3.org/1999/xlink" x="0px" y="0px"
	 viewBox="0 0 1200 1200" style="enable-background:new 0 0 1200 1200;" xml:space="preserve">
<style type="text/css">
	.st0{fill:#A0D2DB;stroke:#A0D2DB;stroke-miterlimit:10;}
</style>
<g>
	<path class="st0" d="M1084.5,475.5l-0.2,0c-2.3-15.4-15.5-27.2-31.5-27.2c-17.7,0-32,14.3-32,32c0,0.8,0.2,1.5,0.2,2.3l-0.4,0
		l0.7,3.1c0.1,0.8,0.3,1.7,0.6,2.5l3.7,16.5c7,31.1,10.5,63.2,10.5,95.3c0,240.5-195.7,436.2-436.2,436.2
		c-240.5,0-436.2-195.7-436.2-436.2S359.5,163.8,600,163.8c101.1,0,199.2,35.5,277.3,100l-46,57.1l180.7,21.3l-55.1-177l-39.5,49
		C827.9,140.5,715.6,100,600,100c-275.7,0-500,224.3-500,500c0,275.7,224.3,500,500,500c275.7,0,500-224.3,500-500
		c0-35.7-3.9-71.5-11.6-106.6L1084.5,475.5z"/>
</g>
</svg>
