<svg id="Calque_1" data-name="Calque 1" xmlns="http://www.w3.org/2000/svg" viewBox="0 0 18.75 15"><defs><style>.cls-1{fill:#6747e4;}</style></defs><g id="cash"><path id="Tracé_62" data-name="Tracé 62" class="cls-1" d="M62,36H45.77v12.5H62ZM60.77,47.28H47v-10H60.77Z" transform="translate(-45.77 -36.03)"/><path id="Tracé_63" data-name="Tracé 63" class="cls-1" d="M63.27,39.15V49.78H48.9V51H64.52V39.15Z" transform="translate(-45.77 -36.03)"/><path id="Tracé_64" data-name="Tracé 64" class="cls-1" d="M53.9,45.34a3.06,3.06,0,1,0-2.82-3.06A2.95,2.95,0,0,0,53.9,45.34Zm0-4.86a1.82,1.82,0,1,1-1.57,1.8,1.7,1.7,0,0,1,1.57-1.8Z" transform="translate(-45.77 -36.03)"/><path id="Tracé_65" data-name="Tracé 65" class="cls-1" d="M48.27,38.84h1.25v6.88H48.27Z" transform="translate(-45.77 -36.03)"/><path id="Tracé_66" data-name="Tracé 66" class="cls-1" d="M58.27,38.84h1.25v6.88H58.27Z" transform="translate(-45.77 -36.03)"/></g></svg>