<svg id="Calque_1" data-name="Calque 1" xmlns="http://www.w3.org/2000/svg" viewBox="0 0 22.54 22.55"><defs><style>.cls-1{fill:#6747e4;}</style></defs><g id="Groupe_70" data-name="Groupe 70"><g id="Groupe_69" data-name="Groupe 69"><path id="Tracé_58" data-name="Tracé 58" class="cls-1" d="M59.5,32.26V34a7.72,7.72,0,0,0-10.62,7.08,2.77,2.77,0,0,0,2.77,2.77h.08a5.6,5.6,0,0,0,2.3,2.2,8.45,8.45,0,0,0-5.89,8v.66H65v-.66a8.47,8.47,0,0,0-5.89-8,5.6,5.6,0,0,0,2.3-2.2h.08a2.77,2.77,0,0,0,2.74-2.38l2.25-1.21h4.17v-8ZM51.16,42.48a1.45,1.45,0,0,1-.87-1.85,1.43,1.43,0,0,1,.87-.88A5.49,5.49,0,0,0,51.16,42.48Zm.49-4.13a2.6,2.6,0,0,0-.87.14,6.41,6.41,0,0,1,8.53-3.09l.19.09v.86a5.58,5.58,0,0,0-7.68,1.84l-.09.16Zm4.27,15.13H49.49a7.14,7.14,0,0,1,3.81-5.66l2.62,3v2.66ZM54.6,47.3a7.06,7.06,0,0,1,4,0l-2,2.27Zm5.27.52a7.14,7.14,0,0,1,3.81,5.66H57.25V50.82Zm-3.29-2.43a4.26,4.26,0,0,1-3.38-1.67h5.26V42.4h-6a4.27,4.27,0,0,1,7-4.4v2.3h1.28a4.27,4.27,0,0,1-3.38,5,3.71,3.71,0,0,1-.81.08ZM63,41.12a1.43,1.43,0,0,1-1,1.36,5.52,5.52,0,0,0,.11-2.18h.6a1.47,1.47,0,0,1,.25.82ZM69.36,39H66.18l-1.86,1V39H60.82v-5.4h8.54Z" transform="translate(-48.14 -32.26)"/></g></g><g id="Groupe_72" data-name="Groupe 72"><g id="Groupe_71" data-name="Groupe 71"><rect id="Rectangle_88" data-name="Rectangle 88" class="cls-1" x="11.27" y="18.13" width="1.41" height="1.32"/></g></g></svg>