<svg xmlns="http://www.w3.org/2000/svg" xmlns:xlink="http://www.w3.org/1999/xlink" version="1.1" id="Calque_1" x="0px" y="0px" style="enable-background:new 0 0 595.3 841.9;" xml:space="preserve" viewBox="287.2 413.2 21 15.8">
<style type="text/css">
	.st0{fill-rule:evenodd;clip-rule:evenodd;fill:#6747E4;}
</style>
<g id="tv" transform="translate(0 -4.5)">
	<path id="Tracé_36" class="st0" d="M290.5,432.8c0-0.4,0.3-0.7,0.7-0.7h13.2c0.4,0,0.7,0.3,0.7,0.7s-0.3,0.7-0.7,0.7h-13.2   C290.8,433.5,290.5,433.2,290.5,432.8C290.5,432.8,290.5,432.8,290.5,432.8z M305.6,419h-15.8c-0.3,0-0.6,0-0.8,0.2   c-0.1,0.1-0.3,0.2-0.3,0.4c-0.1,0.2-0.2,0.5-0.2,0.7v7.9c0,0.3,0,0.6,0.2,0.8c0.1,0.1,0.2,0.3,0.4,0.3c0.2,0.1,0.5,0.2,0.7,0.2   h15.8c0.3,0,0.6,0,0.8-0.2c0.1-0.1,0.3-0.2,0.3-0.4c0.1-0.2,0.2-0.5,0.2-0.7v-7.9c0-0.3,0-0.6-0.2-0.8c-0.1-0.1-0.2-0.3-0.4-0.3   C306.1,419.1,305.9,419,305.6,419L305.6,419z M305.6,417.7h-15.8c-1.4,0-2.6,1.1-2.6,2.5c0,0,0,0.1,0,0.1v7.9   c0,1.4,1.1,2.6,2.5,2.6c0,0,0.1,0,0.1,0h15.8c1.4,0,2.6-1.1,2.6-2.5c0,0,0-0.1,0-0.1v-7.9c0-1.4-1.1-2.6-2.5-2.6   C305.7,417.7,305.7,417.7,305.6,417.7z"/>
</g>
</svg>