<svg width="584" height="493" xmlns="http://www.w3.org/2000/svg" xmlns:xlink="http://www.w3.org/1999/xlink" overflow="hidden"><defs><clipPath id="clip0"><rect x="561" y="34" width="584" height="493"/></clipPath></defs><g clip-path="url(#clip0)" transform="translate(-561 -34)"><path d="M1745.1 1174.88 1909.03 1174.88 1909.03 1133.98 1745.1 1133.98 1745.1 1174.88ZM1632.53 1174.88 1632.53 1584.55 1611.93 1584.55C1572.55 1584.05 1540.76 1552.26 1540.26 1512.89L1540.26 1246.54C1540.76 1207.17 1572.55 1175.38 1611.93 1174.88ZM1991.15 1174.88 1991.15 1584.55 1663.29 1584.55 1663.29 1174.88 1704.19 1174.88 1704.19 1123.52C1704.23 1115.45 1707.43 1107.72 1713.11 1101.99 1718.87 1096.12 1726.73 1092.8 1734.95 1092.76L1919.49 1092.76C1927.7 1092.8 1935.57 1096.12 1941.32 1101.99 1947 1107.72 1950.21 1115.45 1950.24 1123.52L1950.24 1174.88ZM2114.17 1246.54 2114.17 1512.89C2114 1552.4 2082.02 1584.38 2042.51 1584.55L2021.9 1584.55 2021.9 1174.88 2042.51 1174.88C2081.88 1175.38 2113.67 1207.17 2114.17 1246.54Z" fill="#6747E4" transform="matrix(1 0 0 1.00246 -974.218 -1061.45)"/></g></svg>