<?xml version="1.0"?>
<svg width="3123.97" height="1967.04" xmlns="http://www.w3.org/2000/svg" xmlns:svg="http://www.w3.org/2000/svg" xmlns:se="http://svg-edit.googlecode.com" data-name="Calque 1">
 <defs>
  <style>.cls-1{fill:#e0dbf8;opacity:0.2;isolation:isolate;}</style>
 </defs>
 <g class="layer">
  <title>Layer 1</title>
  <path class="cls-1" d="m602.4,-334.00001c13.61,103.23 49.64,249.52 158.07,372.82c123,139.91 222,116.81 401,268.69c196.66,166.88 135.78,244.49 314.15,384.43c205.81,161.46 300.53,68.88 484.53,238.26c139.3,128.22 118.37,212 267.79,295c105,58.3 169,46.83 258,131.93c70.08,67.05 61.57,104.08 135.12,166.45c106.68,90.46 227.12,99.52 224.94,107.72c-3,11.44 -229.94,-36.24 -229.94,-36.24a3347.68,3347.68 0 0 0 -446.36,-215.25c-161.9,-63.82 -266.25,-105 -410.26,-126.44c-234.61,-35 -320.08,20.18 -539.74,15.22c-86.78,-2 -321.37,-22.75 -575.74,-143.55c-157.61,-74.85 -223.38,-142.51 -388.07,-164.3c-64.64,-8.55 -102.76,-4.51 -246.45,-18.74c-164.81,-16.33 -239.9,-34.74 -264.21,-44.27c-158.45,-62.19 544.31,-1019 544.31,-1019l120.77,-126l192.09,-86.73z" data-name="Tracé 111" fill="black" id="Tracé_111" transform="rotate(-35 1284 649.536)"/>
 </g>
</svg>