<svg id="Calque_1" data-name="Calque 1" xmlns="http://www.w3.org/2000/svg" viewBox="0 0 40.27 40.27"><defs><style>.cls-1{fill:#6747e4;}</style></defs><path id="facebook-rect-2" class="cls-1" d="M46.63,23.39a7.33,7.33,0,0,0-7.35,7.33V56.31a7.33,7.33,0,0,0,7.32,7.35H60.49V47.92H56.32V42.25h4.17V37.41c0-3.8,2.46-7.3,8.12-7.3a35.44,35.44,0,0,1,4,.22l-.13,5.29H68.85c-2,0-2.37.94-2.37,2.5v4.14h6.15l-.27,5.67H66.48V63.67H72.2a7.34,7.34,0,0,0,7.35-7.33V30.75a7.34,7.34,0,0,0-7.32-7.36H46.63Z" transform="translate(-39.28 -23.39)"/></svg>