<svg xmlns="http://www.w3.org/2000/svg" xmlns:xlink="http://www.w3.org/1999/xlink" overflow="hidden" viewBox="8 8 48.1 48"><g id="GUIDES_64"/><g id="Layer_3"/><g id="Layer_2"><path d="M20.7 56 43.4 56C50.4 56 56.1 50.2 56.1 43.1L56.1 20.9C56 13.8 50.3 8 43.3 8L20.7 8C13.7 8 8 13.8 8 20.9L8 43.1C8 50.2 13.7 56 20.7 56ZM46 16C47.6 16 48.9 17.3 48.9 19 48.9 20.7 47.6 22 46 22 44.4 22 43.1 20.7 43.1 19 43.1 17.3 44.4 16 46 16ZM32 20C38.5 20 43.7 25.4 43.7 32 43.7 38.6 38.5 44 32 44 25.5 44 20.3 38.6 20.3 32 20.3 25.4 25.5 20 32 20Z" fill="#6747E4"/></g></svg>