<svg id="Calque_1" data-name="Calque 1" xmlns="http://www.w3.org/2000/svg" viewBox="0 0 42.26 42.26"><defs><style>.cls-1{fill:#6747e4;}</style></defs><path id="linkedin-rect-2" class="cls-1" d="M46.56,22.4a8.3,8.3,0,0,0-8.28,8.28v25.7a8.3,8.3,0,0,0,8.28,8.28h25.7a8.3,8.3,0,0,0,8.28-8.28V30.68a8.3,8.3,0,0,0-8.28-8.28Zm2.08,7A3.33,3.33,0,0,1,49.12,36a4.51,4.51,0,0,1-.52,0h0a3.33,3.33,0,0,1-.4-6.64A3.84,3.84,0,0,1,48.64,29.37Zm18.82,8.81c4.2,0,7.35,2.74,7.35,8.64v11H68.43V47.56c0-2.58-.93-4.34-3.24-4.34a3.49,3.49,0,0,0-3.27,2.33,4.33,4.33,0,0,0-.21,1.56V57.83H55.33s.08-17.4,0-19.2h6.38v2.72a6.36,6.36,0,0,1,5.75-3.17Zm-22,.45h6.38v19.2H45.41V38.63Z" transform="translate(-38.28 -22.4)"/></svg>