<svg width="720" height="720" xmlns="http://www.w3.org/2000/svg" xmlns:xlink="http://www.w3.org/1999/xlink" overflow="hidden"><defs><clipPath id="clip0"><rect x="280" y="0" width="720" height="720"/></clipPath></defs><g clip-path="url(#clip0)" transform="translate(-280 0)"><path d="M179.94 540.54C81.12 452.7 0.18 380.58 0.12 380.34 0 380.04 22.44 379.8 50.22 379.8L100.5 379.86 229.98 494.4C301.2 557.46 359.7 609 360 609 360.3 609 418.8 557.46 490.02 494.4L619.5 379.86 669.78 379.8C697.44 379.8 720 380.04 719.88 380.34 719.76 380.58 692.76 404.76 659.88 434.04L600 487.2 600 578.7 600 670.2 534.9 670.2 469.8 670.2 469.68 636.72 469.5 603.18 414.96 651.72C384.9 678.36 360.18 700.2 360 700.2 359.82 700.2 278.76 628.32 179.94 540.54Z" fill="#44DFA4" transform="matrix(1 0 0 -1 280 720)"/><path d="M450.84 459C419.4 450.78 409.5 411.18 433.32 389.1 440.94 382.02 450.42 378.42 461.1 378.42 471.78 378.42 481.26 382.02 488.88 389.1 509.82 408.48 505.14 443.04 479.88 455.76 471.12 460.2 460.02 461.4 450.84 459Z" fill="#44DFA4" transform="matrix(1 0 0 -1 280 720)"/><path d="M233.88 379.8C223.86 378.12 214.32 372.42 208.38 364.56 198.78 351.9 197.1 335.52 203.88 321.3 216.36 295.32 251.46 290.28 271.08 311.7 277.98 319.26 281.58 328.74 281.58 339.3 281.58 342.96 281.22 346.8 280.62 349.2 277.62 360.84 269.7 370.68 259.2 375.78 250.8 379.92 242.4 381.24 233.88 379.8Z" fill="#44DFA4" transform="matrix(1 0 0 -1 280 720)"/><path d="M395.1 361.2C389.4 359.7 386.82 358.56 382.08 355.38 373.92 350.04 367.08 339.9 365.1 330.3 363.72 323.82 363.78 213.84 365.16 209.88 366.42 206.1 369.6 202.56 373.5 200.7 376.38 199.26 377.34 199.08 381.48 199.26 385.44 199.44 386.64 199.8 389.1 201.3 392.52 203.4 395.7 207.3 396.6 210.48 396.96 211.92 397.2 228.9 397.2 258.78L397.2 304.8 405 304.8 412.8 304.8 412.8 170.64 412.8 36.54 414.78 32.22C417.06 27.3 420.84 23.46 425.28 21.42 429.54 19.44 438.36 19.56 442.5 21.6 446.34 23.46 450.54 27.66 452.4 31.5L453.9 34.5 454.08 116.82 454.2 199.2 462 199.2 469.8 199.2 469.8 117.9C469.8 72.96 470.04 36.12 470.34 35.52 470.58 34.98 471.42 33.24 472.14 31.62 473.88 27.66 477.72 23.7 481.74 21.78 484.68 20.28 485.76 20.1 490.8 20.1 495.6 20.1 496.98 20.34 499.5 21.6 503.94 23.76 508.38 28.44 509.88 32.58L511.2 36.06 511.2 170.4 511.2 304.8 519.3 304.8 527.4 304.8 527.4 258.18 527.4 211.5 528.78 208.56 530.16 205.62 525.6 201.06C518.88 194.34 515.58 186.48 516.12 178.44 516.54 171.96 520.8 168.18 527.22 168.72 532.56 169.2 535.56 172.2 536.4 178.02 537 182.46 538.08 184.68 540.84 187.08 545.82 191.46 553.5 189.9 556.92 183.9L558.3 181.5 558.6 103.68C558.9 26.28 558.9 25.86 560.16 24.24 562.56 20.94 564.36 20.1 568.68 20.1 573.42 20.1 575.88 21.48 577.8 25.2 579 27.48 579 29.04 579 105.18 579 189.9 579.18 185.82 575.52 193.2 573.36 197.58 566.46 204.54 562.14 206.64L558.78 208.26 559.62 211.14C560.28 213.54 560.4 223.5 560.28 271.26 560.04 335.04 560.34 331.08 555.84 339.96 550.56 350.46 540.84 358.32 529.32 361.26 525 362.34 522.18 362.4 462.06 362.34 402.78 362.34 399.06 362.28 395.1 361.2Z" fill="#44DFA4" transform="matrix(1 0 0 -1 280 720)"/><path d="M229.92 279C223.62 277.32 217.56 273.9 212.7 269.28 209.16 265.92 206.46 262.14 195.9 245.46L183.3 225.6 164.1 225.6C153.54 225.6 143.16 225.3 141.06 225 132.06 223.5 125.88 217.44 124.26 208.44 122.64 199.5 127.26 190.56 135.48 186.72L138.9 185.1 169.38 185.1 199.8 185.1 199.8 177.78 199.8 170.46 162.42 170.28 125.1 170.1 121.08 168.12C118.68 166.92 116.16 165.12 114.9 163.62 112.74 161.16 62.22 61.14 60.66 56.22 59.46 52.56 59.7 46.38 61.26 42.3 63.06 37.5 67.5 33.06 72.18 31.32 77.46 29.34 83.82 29.46 88.5 31.74 95.1 34.86 95.16 34.92 114.66 73.98L132.6 109.8 188.58 109.8C250.32 109.8 249 109.74 257.1 113.64 265.92 117.84 272.16 124.08 276.36 132.9 280.2 140.94 280.2 140.34 280.2 195 280.2 249.78 280.2 249.06 276.3 257.28 268.08 274.62 248.4 283.86 229.92 279Z" fill="#44DFA4" transform="matrix(1 0 0 -1 280 720)"/><path d="M300 196.74 300 172.62 303.96 168.42C314.34 157.44 320.1 143.7 320.82 128.34 321.42 115.8 319.38 106.38 313.74 95.4 305.52 79.32 290.46 67.26 272.46 62.34 265.86 60.54 251.58 60.06 244.74 61.5 235.2 63.42 226.62 67.08 219.06 72.42 214.26 75.84 206.88 83.22 204 87.48L201.9 90.54 179.52 90.6 157.14 90.6 157.5 89.28C158.4 86.16 163.14 76.14 165.9 71.52 184.32 40.56 216.36 21.36 252 19.98 271.02 19.26 287.76 22.86 304.2 31.26 331.02 44.88 350.58 69.06 358.14 97.92 360.9 108.3 361.5 113.28 361.44 125.4 361.44 140.82 359.58 150.6 353.94 164.7 345.06 186.96 326.04 207.72 304.74 218.46L300 220.8 300 196.74Z" fill="#44DFA4" transform="matrix(1 0 0 -1 280 720)"/></g></svg>