<svg width="230" height="217" xmlns="http://www.w3.org/2000/svg" xmlns:xlink="http://www.w3.org/1999/xlink" overflow="hidden"><defs><clipPath id="clip0"><rect x="224" y="144" width="230" height="217"/></clipPath><clipPath id="clip1"><rect x="225" y="145" width="228" height="215"/></clipPath><clipPath id="clip2"><rect x="225" y="145" width="228" height="215"/></clipPath><clipPath id="clip3"><rect x="225" y="145" width="228" height="215"/></clipPath></defs><g clip-path="url(#clip0)" transform="translate(-224 -144)"><g clip-path="url(#clip1)"><g clip-path="url(#clip2)"><g clip-path="url(#clip3)"><path d="M53.7321 161.411C24.2233 135.181 0.05375 113.645 0.0358333 113.574 0 113.484 6.70083 113.412 14.9963 113.412L30.0104 113.43 68.6746 147.633C89.9417 166.464 107.41 181.854 107.5 181.854 107.59 181.854 125.058 166.464 146.325 147.633L184.99 113.43 200.004 113.412C208.263 113.412 215 113.484 214.964 113.574 214.928 113.645 206.866 120.866 197.048 129.609L179.167 145.483 179.167 172.806 179.167 200.129 159.727 200.129 140.287 200.129 140.252 190.132 140.198 180.116 123.912 194.611C114.935 202.566 107.554 209.087 107.5 209.087 107.446 209.087 83.2408 187.623 53.7321 161.411Z" fill="#D3D3D3" transform="matrix(1.06047 0 0 -1 225 360)"/><path d="M134.626 137.063C125.237 134.608 122.281 122.783 129.394 116.19 131.67 114.075 134.5 113 137.69 113 140.879 113 143.71 114.075 145.985 116.19 152.238 121.977 150.84 132.297 143.298 136.095 140.682 137.421 137.367 137.779 134.626 137.063Z" fill="#D3D3D3" transform="matrix(1.06047 0 0 -1 225 360)"/><path d="M69.8392 113.412C66.8471 112.911 63.9983 111.209 62.2246 108.862 59.3579 105.081 58.8563 100.19 60.8808 95.9437 64.6075 88.1858 75.0887 86.6808 80.9475 93.0771 83.0079 95.3346 84.0829 98.1654 84.0829 101.319 84.0829 102.412 83.9754 103.558 83.7962 104.275 82.9004 107.751 80.5354 110.689 77.4 112.212 74.8917 113.448 72.3833 113.842 69.8392 113.412Z" fill="#D3D3D3" transform="matrix(1.06047 0 0 -1 225 360)"/><path d="M117.981 107.858C116.279 107.41 115.509 107.07 114.093 106.12 111.657 104.526 109.614 101.498 109.023 98.6312 108.611 96.6963 108.629 63.855 109.041 62.6725 109.417 61.5438 110.367 60.4867 111.531 59.9312 112.391 59.5012 112.678 59.4475 113.914 59.5012 115.097 59.555 115.455 59.6625 116.19 60.1104 117.211 60.7375 118.16 61.9021 118.429 62.8517 118.537 63.2817 118.608 68.3521 118.608 77.2746L118.608 91.0167 120.938 91.0167 123.267 91.0167 123.267 50.955 123.267 10.9113 123.858 9.62125C124.539 8.15208 125.667 7.00542 126.993 6.39625 128.265 5.805 130.899 5.84083 132.135 6.45 133.282 7.00542 134.536 8.25958 135.092 9.40625L135.54 10.3021 135.593 34.8838 135.629 59.4833 137.958 59.4833 140.287 59.4833 140.287 35.2062C140.287 21.7867 140.359 10.7858 140.449 10.6067 140.52 10.4454 140.771 9.92583 140.986 9.44208 141.506 8.25958 142.652 7.07708 143.853 6.50375 144.731 6.05583 145.053 6.00208 146.558 6.00208 147.992 6.00208 148.404 6.07375 149.156 6.45 150.482 7.095 151.808 8.4925 152.256 9.72875L152.65 10.7679 152.65 50.8833 152.65 91.0167 155.069 91.0167 157.488 91.0167 157.488 77.0954 157.488 63.1563 157.9 62.2783 158.312 61.4004 156.95 60.0387C154.943 58.0321 153.958 55.685 154.119 53.2842 154.245 51.3492 155.517 50.2204 157.434 50.3817 159.028 50.525 159.924 51.4208 160.175 53.1587 160.354 54.4846 160.677 55.1475 161.501 55.8642 162.988 57.1721 165.281 56.7062 166.302 54.9146L166.715 54.1979 166.804 30.96C166.894 7.8475 166.894 7.72208 167.27 7.23833 167.987 6.25292 168.524 6.00208 169.814 6.00208 171.23 6.00208 171.964 6.41417 172.537 7.525 172.896 8.20583 172.896 8.67167 172.896 31.4079 172.896 56.7062 172.95 55.4879 171.857 57.6917 171.212 58.9996 169.151 61.0779 167.861 61.705L166.858 62.1887 167.109 63.0487C167.306 63.7654 167.342 66.7396 167.306 81.0013 167.234 100.047 167.324 98.8642 165.98 101.516 164.403 104.651 161.501 106.998 158.061 107.876 156.771 108.199 155.929 108.217 137.976 108.199 120.275 108.199 119.164 108.181 117.981 107.858Z" fill="#D3D3D3" transform="matrix(1.06047 0 0 -1 225 360)"/><path d="M68.6567 83.3125C66.7754 82.8108 64.9658 81.7896 63.5146 80.41 62.4575 79.4067 61.6512 78.2779 58.4979 73.2971L54.7354 67.3667 49.0021 67.3667C45.8488 67.3667 42.7492 67.2771 42.1221 67.1875 39.4346 66.7396 37.5892 64.93 37.1054 62.2425 36.6217 59.5729 38.0013 56.9033 40.4558 55.7567L41.4771 55.2729 50.5788 55.2729 59.6625 55.2729 59.6625 53.0871 59.6625 50.9012 48.5004 50.8475 37.3563 50.7938 36.1558 50.2025C35.4392 49.8442 34.6867 49.3067 34.3104 48.8587 33.6654 48.1242 18.5796 18.2571 18.1138 16.7879 17.7554 15.695 17.8271 13.8496 18.2929 12.6312 18.8304 11.1979 20.1563 9.87208 21.5537 9.3525 23.1304 8.76125 25.0296 8.79708 26.4271 9.47792 28.3979 10.4096 28.4158 10.4275 34.2388 22.0912L39.5958 32.7875 56.3121 32.7875C74.7483 32.7875 74.3542 32.7696 76.7729 33.9342 79.4067 35.1883 81.27 37.0517 82.5242 39.6854 83.6708 42.0863 83.6708 41.9071 83.6708 58.2292 83.6708 74.5871 83.6708 74.3721 82.5062 76.8267 80.0517 82.0046 74.175 84.7637 68.6567 83.3125Z" fill="#D3D3D3" transform="matrix(1.06047 0 0 -1 225 360)"/><path d="M89.5833 58.7487 89.5833 51.5462 90.7658 50.2921C93.8654 47.0133 95.5854 42.9104 95.8004 38.3237 95.9796 34.5792 95.3704 31.7662 93.6862 28.4875 91.2317 23.6858 86.7346 20.0846 81.3596 18.6154 79.3887 18.0779 75.1246 17.9346 73.0821 18.3646 70.2333 18.9379 67.6712 20.0308 65.4137 21.6254 63.9804 22.6467 61.7767 24.8504 60.9167 26.1225L60.2896 27.0362 53.6067 27.0542 46.9237 27.0542 47.0313 26.66C47.3 25.7283 48.7154 22.7362 49.5396 21.3567 55.04 12.1117 64.6075 6.37833 75.25 5.96625 80.9296 5.75125 85.9283 6.82625 90.8375 9.33458 98.8462 13.4017 104.687 20.6221 106.945 29.24 107.769 32.3396 107.948 33.8267 107.93 37.4458 107.93 42.0504 107.375 44.9708 105.69 49.1812 103.039 55.8283 97.3592 62.0275 90.9987 65.2346L89.5833 65.9333 89.5833 58.7487Z" fill="#D3D3D3" transform="matrix(1.06047 0 0 -1 225 360)"/></g></g></g><path d="M254 152 445.368 346.732" stroke="#D3D3D3" stroke-width="6" stroke-miterlimit="8" fill="none" fill-rule="evenodd"/></g></svg>