<svg viewBox="0 0 512 512" xmlns="http://www.w3.org/2000/svg" xmlns:xlink="http://www.w3.org/1999/xlink" id="Capa_1" overflow="hidden"><g><g><path d="M495.914 189.604C476.949 173.69 448.571 176.18 432.686 195.11L389.991 245.633 389.991 99.129C389.991 86.85 384.885 74.959 375.983 66.504L319.005 12.379C310.606 4.4 299.6 0.005 288.015 0.005L44.999 0.005C20.187 0.005 0 20.192 0 45.004L0 466.995C0 491.807 20.187 511.994 44.999 511.994L344.993 511.994C369.805 511.994 389.992 491.807 389.992 466.995L389.992 385.034C391.835 382.851 501.116 253.407 501.46 253 517.447 233.948 514.969 205.592 495.914 189.604ZM299.994 35.695C360.007 92.703 355.745 88.536 356.87 90.004L299.994 90.004 299.994 35.695ZM359.992 466.995C359.992 475.266 353.263 481.995 344.992 481.995L44.999 481.995C36.728 481.995 29.999 475.266 29.999 466.995L29.999 45.004C29.999 36.733 36.728 30.004 44.999 30.004L269.994 30.004 269.994 105.002C269.994 113.286 276.71 120.002 284.994 120.002L359.992 120.002 359.992 281.131C353.549 288.755 301.814 349.974 296.222 356.591 291.755 361.915 288.54 368.302 286.926 375.061L272.986 433.417C271.667 438.943 273.582 444.741 277.934 448.393 282.29 452.049 288.333 452.922 293.541 450.665L348.591 426.803C352.724 425.011 356.579 422.577 359.992 419.652L359.992 466.995ZM324.315 369.827 347.293 389.107 342.183 395.159C340.696 396.933 338.785 398.358 336.66 399.279L309.136 411.21 316.107 382.032C316.645 379.779 317.716 377.65 319.171 375.916L324.315 369.827ZM366.644 366.184 343.677 346.913C346.007 344.156 421.375 254.97 426.587 248.803L449.506 268.034 366.644 366.184ZM478.509 233.682 468.86 245.112 445.952 225.89 455.634 214.433C460.923 208.13 470.344 207.308 476.631 212.584 483.043 217.963 483.75 227.436 478.509 233.682Z" fill="#6747E4"/></g></g><g><g><path d="M224.995 90.003 74.998 90.003C66.714 90.003 59.998 96.719 59.998 105.003 59.998 113.287 66.714 120.003 74.998 120.003L224.995 120.003C233.279 120.003 239.995 113.287 239.995 105.003 239.995 96.719 233.279 90.003 224.995 90.003Z" fill="#6747E4"/></g></g><g><g><path d="M314.993 181.001 74.998 181.001C66.714 181.001 59.998 187.717 59.998 196.001 59.998 204.285 66.714 211.001 74.998 211.001L314.993 211.001C323.277 211.001 329.993 204.285 329.993 196.001 329.993 187.717 323.277 181.001 314.993 181.001Z" fill="#6747E4"/></g></g><g><g><path d="M314.993 271 74.998 271C66.714 271 59.998 277.716 59.998 286 59.998 294.284 66.714 301 74.998 301L314.993 301C323.277 301 329.993 294.284 329.993 286 329.993 277.715 323.277 271 314.993 271Z" fill="#6747E4"/></g></g><g><g><path d="M224.995 360.998 74.998 360.998C66.714 360.998 59.998 367.714 59.998 375.998 59.998 384.282 66.714 390.998 74.998 390.998L224.995 390.998C233.279 390.998 239.995 384.282 239.995 375.998 239.995 367.714 233.279 360.998 224.995 360.998Z" fill="#6747E4"/></g></g><g></g><g></g><g></g><g></g><g></g><g></g><g></g><g></g><g></g><g></g><g></g><g></g><g></g><g></g><g></g></svg>